<svg xmlns="http://www.w3.org/2000/svg" xmlns:xlink="http://www.w3.org/1999/xlink" width="500" zoomAndPan="magnify" viewBox="0 0 375 374.999991" height="500" preserveAspectRatio="xMidYMid meet" version="1.0"><defs><g/><clipPath id="fc61a6d2c3"><path d="M 5.523438 7.289062 L 363.273438 7.289062 L 363.273438 365 L 5.523438 365 Z M 5.523438 7.289062 " clip-rule="nonzero"/></clipPath><clipPath id="d197cd486f"><path d="M 161 123.558594 L 214 123.558594 L 214 141 L 161 141 Z M 161 123.558594 " clip-rule="nonzero"/></clipPath><clipPath id="2146149d8d"><path d="M 219 172 L 258.621094 172 L 258.621094 218 L 219 218 Z M 219 172 " clip-rule="nonzero"/></clipPath><clipPath id="d91584500c"><path d="M 113.121094 144 L 258.621094 144 L 258.621094 168 L 113.121094 168 Z M 113.121094 144 " clip-rule="nonzero"/></clipPath><clipPath id="86e022d29a"><path d="M 113.121094 172 L 153 172 L 153 218 L 113.121094 218 Z M 113.121094 172 " clip-rule="nonzero"/></clipPath><clipPath id="b04561fcf6"><path d="M 113.121094 221 L 258.621094 221 L 258.621094 245 L 113.121094 245 Z M 113.121094 221 " clip-rule="nonzero"/></clipPath><clipPath id="040ab03131"><path d="M 26.917969 31.082031 L 344.917969 31.082031 L 344.917969 140.582031 L 26.917969 140.582031 Z M 26.917969 31.082031 " clip-rule="nonzero"/></clipPath><clipPath id="2232a3ff84"><path d="M 26.917969 239.097656 L 344.917969 239.097656 L 344.917969 348.28125 L 26.917969 348.28125 Z M 26.917969 239.097656 " clip-rule="nonzero"/></clipPath></defs><g clip-path="url(#fc61a6d2c3)"><path fill="#ffffff" d="M 184.265625 7.289062 C 181.339844 7.289062 178.417969 7.359375 175.496094 7.503906 C 172.574219 7.648438 169.65625 7.863281 166.746094 8.148438 C 163.835938 8.4375 160.933594 8.792969 158.039062 9.222656 C 155.144531 9.652344 152.265625 10.152344 149.394531 10.722656 C 146.527344 11.292969 143.671875 11.933594 140.835938 12.644531 C 137.996094 13.355469 135.179688 14.136719 132.378906 14.984375 C 129.582031 15.835938 126.804688 16.75 124.050781 17.738281 C 121.296875 18.722656 118.566406 19.773438 115.863281 20.894531 C 113.160156 22.011719 110.488281 23.199219 107.84375 24.449219 C 105.199219 25.699219 102.585938 27.015625 100.007812 28.394531 C 97.429688 29.773438 94.882812 31.214844 92.375 32.71875 C 89.867188 34.222656 87.394531 35.785156 84.960938 37.410156 C 82.53125 39.035156 80.140625 40.71875 77.789062 42.464844 C 75.441406 44.207031 73.136719 46.003906 70.875 47.859375 C 68.613281 49.714844 66.398438 51.625 64.230469 53.589844 C 62.0625 55.554688 59.945312 57.570312 57.875 59.640625 C 55.808594 61.707031 53.792969 63.828125 51.828125 65.992188 C 49.863281 68.160156 47.953125 70.375 46.097656 72.636719 C 44.242188 74.898438 42.441406 77.203125 40.699219 79.554688 C 38.957031 81.902344 37.273438 84.292969 35.648438 86.726562 C 34.023438 89.15625 32.457031 91.628906 30.953125 94.136719 C 29.449219 96.648438 28.007812 99.191406 26.628906 101.769531 C 25.25 104.351562 23.9375 106.964844 22.6875 109.605469 C 21.433594 112.25 20.25 114.925781 19.132812 117.628906 C 18.011719 120.332031 16.957031 123.058594 15.972656 125.8125 C 14.988281 128.566406 14.070312 131.34375 13.222656 134.144531 C 12.371094 136.941406 11.59375 139.761719 10.882812 142.597656 C 10.171875 145.4375 9.53125 148.289062 8.960938 151.15625 C 8.390625 154.027344 7.890625 156.910156 7.460938 159.800781 C 7.03125 162.695312 6.671875 165.597656 6.386719 168.507812 C 6.097656 171.421875 5.882812 174.335938 5.742188 177.257812 C 5.597656 180.179688 5.523438 183.101562 5.523438 186.027344 C 5.523438 188.953125 5.597656 191.878906 5.742188 194.800781 C 5.882812 197.71875 6.097656 200.636719 6.386719 203.546875 C 6.671875 206.460938 7.03125 209.363281 7.460938 212.253906 C 7.890625 215.148438 8.390625 218.03125 8.960938 220.898438 C 9.53125 223.769531 10.171875 226.621094 10.882812 229.457031 C 11.59375 232.296875 12.371094 235.113281 13.222656 237.914062 C 14.070312 240.714844 14.988281 243.488281 15.972656 246.246094 C 16.957031 249 18.011719 251.726562 19.132812 254.429688 C 20.25 257.132812 21.433594 259.804688 22.6875 262.449219 C 23.9375 265.09375 25.25 267.707031 26.628906 270.285156 C 28.007812 272.867188 29.449219 275.410156 30.953125 277.917969 C 32.457031 280.429688 34.023438 282.898438 35.648438 285.332031 C 37.273438 287.761719 38.957031 290.15625 40.699219 292.503906 C 42.441406 294.855469 44.242188 297.160156 46.097656 299.421875 C 47.953125 301.679688 49.863281 303.894531 51.828125 306.0625 C 53.792969 308.230469 55.808594 310.347656 57.875 312.417969 C 59.945312 314.484375 62.0625 316.5 64.230469 318.464844 C 66.398438 320.429688 68.613281 322.339844 70.875 324.195312 C 73.136719 326.050781 75.441406 327.851562 77.789062 329.59375 C 80.140625 331.335938 82.53125 333.019531 84.960938 334.644531 C 87.394531 336.269531 89.867188 337.835938 92.375 339.339844 C 94.882812 340.84375 97.429688 342.285156 100.007812 343.664062 C 102.585938 345.042969 105.199219 346.355469 107.84375 347.609375 C 110.488281 348.859375 113.160156 350.042969 115.863281 351.164062 C 118.566406 352.28125 121.296875 353.335938 124.050781 354.320312 C 126.804688 355.304688 129.582031 356.222656 132.378906 357.074219 C 135.179688 357.921875 137.996094 358.703125 140.835938 359.414062 C 143.671875 360.121094 146.527344 360.765625 149.394531 361.335938 C 152.265625 361.90625 155.144531 362.40625 158.039062 362.835938 C 160.933594 363.261719 163.835938 363.621094 166.746094 363.90625 C 169.65625 364.195312 172.574219 364.410156 175.496094 364.554688 C 178.417969 364.695312 181.339844 364.769531 184.265625 364.769531 C 187.191406 364.769531 190.113281 364.695312 193.035156 364.554688 C 195.957031 364.410156 198.875 364.195312 201.785156 363.90625 C 204.695312 363.621094 207.597656 363.261719 210.492188 362.835938 C 213.386719 362.40625 216.265625 361.90625 219.136719 361.335938 C 222.003906 360.761719 224.859375 360.121094 227.695312 359.414062 C 230.53125 358.703125 233.351562 357.921875 236.152344 357.074219 C 238.949219 356.222656 241.726562 355.304688 244.480469 354.320312 C 247.234375 353.335938 249.964844 352.28125 252.667969 351.164062 C 255.367188 350.042969 258.042969 348.859375 260.6875 347.609375 C 263.332031 346.355469 265.941406 345.042969 268.523438 343.664062 C 271.101562 342.285156 273.648438 340.84375 276.15625 339.339844 C 278.664062 337.835938 281.136719 336.269531 283.566406 334.644531 C 286 333.019531 288.390625 331.335938 290.742188 329.59375 C 293.089844 327.851562 295.394531 326.050781 297.65625 324.195312 C 299.917969 322.339844 302.132812 320.429688 304.300781 318.464844 C 306.46875 316.5 308.585938 314.484375 310.652344 312.417969 C 312.722656 310.347656 314.738281 308.230469 316.703125 306.0625 C 318.667969 303.894531 320.578125 301.679688 322.433594 299.421875 C 324.289062 297.160156 326.089844 294.855469 327.832031 292.503906 C 329.574219 290.15625 331.257812 287.761719 332.882812 285.332031 C 334.507812 282.898438 336.070312 280.429688 337.574219 277.917969 C 339.078125 275.410156 340.519531 272.867188 341.898438 270.285156 C 343.277344 267.707031 344.59375 265.09375 345.84375 262.449219 C 347.09375 259.804688 348.28125 257.132812 349.398438 254.429688 C 350.519531 251.726562 351.570312 249 352.558594 246.246094 C 353.542969 243.488281 354.460938 240.714844 355.308594 237.914062 C 356.15625 235.113281 356.9375 232.296875 357.648438 229.457031 C 358.359375 226.621094 359 223.769531 359.570312 220.898438 C 360.140625 218.03125 360.640625 215.148438 361.070312 212.253906 C 361.5 209.363281 361.859375 206.460938 362.144531 203.546875 C 362.429688 200.636719 362.648438 197.71875 362.789062 194.800781 C 362.933594 191.878906 363.003906 188.953125 363.003906 186.027344 C 363.003906 183.105469 362.925781 180.183594 362.78125 177.261719 C 362.632812 174.339844 362.414062 171.425781 362.125 168.515625 C 361.835938 165.605469 361.476562 162.703125 361.042969 159.8125 C 360.613281 156.921875 360.109375 154.039062 359.535156 151.171875 C 358.964844 148.304688 358.320312 145.453125 357.609375 142.617188 C 356.894531 139.78125 356.113281 136.964844 355.261719 134.167969 C 354.410156 131.367188 353.492188 128.59375 352.503906 125.839844 C 351.519531 123.089844 350.464844 120.359375 349.34375 117.660156 C 348.222656 114.960938 347.039062 112.285156 345.785156 109.644531 C 344.535156 107 343.21875 104.390625 341.839844 101.8125 C 340.460938 99.234375 339.015625 96.691406 337.511719 94.183594 C 336.007812 91.675781 334.445312 89.207031 332.816406 86.773438 C 331.191406 84.34375 329.507812 81.953125 327.765625 79.605469 C 326.023438 77.257812 324.226562 74.953125 322.371094 72.691406 C 320.515625 70.433594 318.605469 68.21875 316.640625 66.050781 C 314.675781 63.886719 312.660156 61.769531 310.59375 59.699219 C 308.523438 57.632812 306.40625 55.617188 304.242188 53.652344 C 302.074219 51.691406 299.859375 49.78125 297.601562 47.925781 C 295.339844 46.070312 293.035156 44.269531 290.6875 42.527344 C 288.339844 40.785156 285.949219 39.101562 283.519531 37.476562 C 281.085938 35.851562 278.617188 34.285156 276.109375 32.78125 C 273.601562 31.277344 271.058594 29.835938 268.480469 28.457031 C 265.902344 27.074219 263.292969 25.761719 260.648438 24.507812 C 258.007812 23.257812 255.335938 22.070312 252.632812 20.949219 C 249.933594 19.828125 247.207031 18.773438 244.453125 17.789062 C 241.699219 16.800781 238.925781 15.882812 236.128906 15.03125 C 233.328125 14.179688 230.511719 13.398438 227.675781 12.6875 C 224.839844 11.972656 221.988281 11.332031 219.121094 10.757812 C 216.253906 10.183594 213.375 9.683594 210.480469 9.25 C 207.589844 8.816406 204.6875 8.457031 201.777344 8.167969 C 198.867188 7.878906 195.953125 7.660156 193.03125 7.511719 C 190.113281 7.367188 187.191406 7.292969 184.265625 7.289062 Z M 184.265625 7.289062 " fill-opacity="1" fill-rule="nonzero"/></g><path fill="#004aad" d="M 144.988281 138.125 L 144.988281 140.316406 L 130.074219 140.316406 L 130.074219 138.125 C 130.074219 137.839844 130.101562 137.558594 130.15625 137.28125 C 130.210938 137 130.292969 136.730469 130.402344 136.46875 C 130.511719 136.203125 130.644531 135.957031 130.800781 135.71875 C 130.960938 135.480469 131.140625 135.265625 131.339844 135.0625 C 131.542969 134.863281 131.761719 134.683594 131.996094 134.523438 C 132.234375 134.367188 132.480469 134.234375 132.746094 134.125 C 133.007812 134.015625 133.277344 133.933594 133.558594 133.878906 C 133.835938 133.824219 134.117188 133.792969 134.402344 133.792969 L 140.660156 133.792969 C 140.945312 133.792969 141.226562 133.824219 141.503906 133.878906 C 141.785156 133.933594 142.054688 134.015625 142.316406 134.125 C 142.578125 134.234375 142.828125 134.367188 143.066406 134.523438 C 143.300781 134.683594 143.519531 134.863281 143.722656 135.0625 C 143.921875 135.265625 144.101562 135.484375 144.261719 135.71875 C 144.417969 135.957031 144.550781 136.203125 144.660156 136.46875 C 144.769531 136.730469 144.851562 137 144.90625 137.28125 C 144.960938 137.558594 144.988281 137.839844 144.988281 138.125 Z M 144.988281 138.125 " fill-opacity="1" fill-rule="nonzero"/><g clip-path="url(#d197cd486f)"><path fill="#004aad" d="M 208.777344 123.726562 L 165.332031 123.726562 C 165.046875 123.726562 164.765625 123.757812 164.484375 123.8125 C 164.207031 123.867188 163.9375 123.949219 163.675781 124.058594 C 163.410156 124.167969 163.164062 124.300781 162.925781 124.457031 C 162.6875 124.617188 162.472656 124.796875 162.269531 124.996094 C 162.070312 125.199219 161.890625 125.414062 161.730469 125.652344 C 161.574219 125.890625 161.441406 126.136719 161.332031 126.402344 C 161.222656 126.664062 161.140625 126.933594 161.085938 127.214844 C 161.03125 127.492188 161 127.773438 161 128.058594 L 161 140.316406 L 213.105469 140.316406 L 213.105469 128.058594 C 213.105469 127.773438 213.078125 127.492188 213.023438 127.214844 C 212.96875 126.933594 212.886719 126.664062 212.777344 126.402344 C 212.667969 126.136719 212.535156 125.890625 212.378906 125.652344 C 212.21875 125.414062 212.039062 125.199219 211.839844 124.996094 C 211.636719 124.796875 211.417969 124.617188 211.183594 124.457031 C 210.945312 124.300781 210.699219 124.167969 210.433594 124.058594 C 210.171875 123.949219 209.902344 123.867188 209.621094 123.8125 C 209.34375 123.757812 209.0625 123.726562 208.777344 123.726562 Z M 193.757812 134.316406 L 180.351562 134.316406 C 179.992188 134.316406 179.648438 134.246094 179.3125 134.109375 C 178.980469 133.972656 178.6875 133.777344 178.433594 133.523438 C 178.179688 133.269531 177.984375 132.972656 177.847656 132.640625 C 177.707031 132.308594 177.640625 131.964844 177.640625 131.605469 C 177.640625 131.246094 177.707031 130.898438 177.847656 130.566406 C 177.984375 130.234375 178.179688 129.941406 178.433594 129.6875 C 178.6875 129.433594 178.980469 129.234375 179.3125 129.097656 C 179.648438 128.960938 179.992188 128.890625 180.351562 128.890625 L 193.757812 128.890625 C 194.117188 128.890625 194.460938 128.960938 194.792969 129.097656 C 195.125 129.234375 195.421875 129.433594 195.675781 129.6875 C 195.929688 129.941406 196.125 130.234375 196.261719 130.566406 C 196.398438 130.898438 196.46875 131.246094 196.46875 131.605469 C 196.46875 131.964844 196.398438 132.308594 196.261719 132.640625 C 196.125 132.972656 195.929688 133.269531 195.675781 133.523438 C 195.421875 133.777344 195.125 133.972656 194.792969 134.109375 C 194.460938 134.246094 194.117188 134.316406 193.757812 134.316406 Z M 193.757812 134.316406 " fill-opacity="1" fill-rule="nonzero"/></g><g clip-path="url(#2146149d8d)"><path fill="#004aad" d="M 258.796875 172.128906 L 258.796875 217.089844 L 219.054688 217.089844 C 220.175781 215.441406 221.171875 213.722656 222.035156 211.925781 C 222.902344 210.128906 223.628906 208.277344 224.214844 206.375 C 224.804688 204.46875 225.246094 202.53125 225.542969 200.558594 C 225.839844 198.585938 225.988281 196.605469 225.988281 194.609375 C 225.988281 192.617188 225.839844 190.632812 225.542969 188.664062 C 225.246094 186.691406 224.804688 184.753906 224.214844 182.847656 C 223.628906 180.941406 222.902344 179.09375 222.035156 177.296875 C 221.171875 175.5 220.175781 173.777344 219.054688 172.128906 Z M 258.796875 172.128906 " fill-opacity="1" fill-rule="nonzero"/></g><g clip-path="url(#d91584500c)"><path fill="#004aad" d="M 254.46875 144.644531 L 117.503906 144.644531 C 117.214844 144.648438 116.933594 144.679688 116.652344 144.734375 C 116.371094 144.792969 116.097656 144.878906 115.832031 144.992188 C 115.570312 145.101562 115.320312 145.238281 115.082031 145.398438 C 114.84375 145.558594 114.621094 145.738281 114.417969 145.941406 C 114.214844 146.144531 114.035156 146.363281 113.875 146.601562 C 113.714844 146.839844 113.578125 147.09375 113.46875 147.355469 C 113.355469 147.621094 113.273438 147.894531 113.214844 148.171875 C 113.15625 148.453125 113.125 148.738281 113.121094 149.023438 L 113.121094 167.75 L 156.359375 167.75 C 157.292969 166.71875 158.277344 165.738281 159.316406 164.808594 C 160.351562 163.878906 161.433594 163.003906 162.5625 162.191406 C 163.6875 161.375 164.855469 160.617188 166.0625 159.925781 C 167.269531 159.230469 168.507812 158.601562 169.78125 158.035156 C 171.050781 157.472656 172.351562 156.976562 173.675781 156.546875 C 174.996094 156.117188 176.339844 155.757812 177.703125 155.46875 C 179.0625 155.183594 180.4375 154.964844 181.820312 154.820312 C 183.207031 154.675781 184.59375 154.601562 185.984375 154.601562 C 187.378906 154.601562 188.765625 154.675781 190.148438 154.820312 C 191.535156 154.964844 192.90625 155.183594 194.269531 155.46875 C 195.628906 155.757812 196.972656 156.117188 198.296875 156.546875 C 199.621094 156.976562 200.917969 157.472656 202.191406 158.035156 C 203.464844 158.601562 204.703125 159.230469 205.910156 159.925781 C 207.117188 160.617188 208.28125 161.375 209.410156 162.191406 C 210.539062 163.003906 211.621094 163.878906 212.65625 164.808594 C 213.691406 165.738281 214.675781 166.71875 215.609375 167.75 L 258.796875 167.75 L 258.796875 149.023438 C 258.796875 148.738281 258.769531 148.457031 258.714844 148.175781 C 258.660156 147.894531 258.578125 147.625 258.46875 147.359375 C 258.359375 147.097656 258.226562 146.84375 258.070312 146.605469 C 257.910156 146.367188 257.734375 146.148438 257.53125 145.945312 C 257.332031 145.742188 257.113281 145.558594 256.878906 145.398438 C 256.640625 145.238281 256.390625 145.101562 256.128906 144.992188 C 255.867188 144.878906 255.59375 144.796875 255.316406 144.738281 C 255.035156 144.679688 254.753906 144.648438 254.46875 144.644531 Z M 225.261719 157.109375 C 224.898438 157.109375 224.554688 157.039062 224.222656 156.902344 C 223.890625 156.765625 223.597656 156.570312 223.34375 156.316406 C 223.085938 156.058594 222.890625 155.765625 222.753906 155.433594 C 222.617188 155.101562 222.546875 154.757812 222.546875 154.398438 C 222.546875 154.039062 222.617188 153.691406 222.753906 153.359375 C 222.890625 153.027344 223.085938 152.734375 223.34375 152.480469 C 223.597656 152.226562 223.890625 152.027344 224.222656 151.890625 C 224.554688 151.753906 224.898438 151.683594 225.257812 151.683594 C 225.621094 151.683594 225.964844 151.753906 226.296875 151.890625 C 226.628906 152.027344 226.921875 152.226562 227.175781 152.480469 C 227.433594 152.734375 227.628906 153.027344 227.765625 153.359375 C 227.902344 153.691406 227.972656 154.039062 227.972656 154.398438 C 227.972656 154.757812 227.902344 155.101562 227.765625 155.433594 C 227.628906 155.765625 227.433594 156.058594 227.175781 156.316406 C 226.921875 156.570312 226.628906 156.765625 226.296875 156.902344 C 225.964844 157.039062 225.621094 157.109375 225.261719 157.109375 Z M 247.53125 157.109375 L 234.125 157.109375 C 233.765625 157.109375 233.421875 157.039062 233.089844 156.902344 C 232.757812 156.765625 232.464844 156.570312 232.207031 156.316406 C 231.953125 156.058594 231.757812 155.765625 231.621094 155.433594 C 231.484375 155.101562 231.414062 154.757812 231.414062 154.398438 C 231.414062 154.039062 231.484375 153.691406 231.621094 153.359375 C 231.757812 153.027344 231.953125 152.734375 232.207031 152.480469 C 232.464844 152.226562 232.757812 152.027344 233.089844 151.890625 C 233.421875 151.753906 233.765625 151.683594 234.125 151.683594 L 247.53125 151.683594 C 247.886719 151.691406 248.230469 151.765625 248.5625 151.90625 C 248.890625 152.042969 249.179688 152.242188 249.433594 152.492188 C 249.6875 152.746094 249.882812 153.039062 250.023438 153.367188 C 250.164062 153.695312 250.238281 154.039062 250.242188 154.398438 C 250.242188 154.757812 250.175781 155.101562 250.035156 155.433594 C 249.898438 155.765625 249.703125 156.058594 249.449219 156.316406 C 249.195312 156.570312 248.902344 156.765625 248.570312 156.902344 C 248.238281 157.039062 247.890625 157.109375 247.53125 157.109375 Z M 247.53125 157.109375 " fill-opacity="1" fill-rule="nonzero"/></g><g clip-path="url(#86e022d29a)"><path fill="#004aad" d="M 145.980469 194.609375 C 145.972656 198.621094 146.5625 202.542969 147.746094 206.375 C 148.929688 210.207031 150.652344 213.78125 152.917969 217.089844 L 113.121094 217.089844 L 113.121094 172.128906 L 152.917969 172.128906 C 150.648438 175.4375 148.921875 179.007812 147.738281 182.84375 C 146.554688 186.675781 145.96875 190.597656 145.980469 194.609375 Z M 145.980469 194.609375 " fill-opacity="1" fill-rule="nonzero"/></g><g clip-path="url(#b04561fcf6)"><path fill="#004aad" d="M 258.796875 221.417969 L 258.796875 240.195312 C 258.796875 240.480469 258.769531 240.761719 258.714844 241.039062 C 258.660156 241.320312 258.578125 241.589844 258.46875 241.851562 C 258.359375 242.117188 258.226562 242.363281 258.066406 242.601562 C 257.910156 242.835938 257.730469 243.054688 257.527344 243.257812 C 257.328125 243.457031 257.109375 243.636719 256.875 243.796875 C 256.636719 243.953125 256.386719 244.085938 256.125 244.195312 C 255.863281 244.304688 255.589844 244.386719 255.3125 244.441406 C 255.035156 244.496094 254.753906 244.523438 254.46875 244.523438 L 117.503906 244.523438 C 117.21875 244.523438 116.933594 244.496094 116.652344 244.441406 C 116.375 244.386719 116.101562 244.304688 115.835938 244.195312 C 115.574219 244.089844 115.324219 243.957031 115.085938 243.796875 C 114.847656 243.640625 114.625 243.460938 114.421875 243.261719 C 114.21875 243.058594 114.039062 242.839844 113.878906 242.605469 C 113.71875 242.367188 113.582031 242.121094 113.46875 241.855469 C 113.359375 241.59375 113.273438 241.324219 113.214844 241.042969 C 113.15625 240.765625 113.125 240.480469 113.121094 240.195312 L 113.121094 221.417969 L 156.359375 221.417969 C 157.292969 222.453125 158.273438 223.4375 159.308594 224.371094 C 160.34375 225.304688 161.425781 226.179688 162.550781 227 C 163.679688 227.820312 164.84375 228.578125 166.050781 229.273438 C 167.257812 229.96875 168.496094 230.601562 169.769531 231.167969 C 171.042969 231.734375 172.339844 232.234375 173.664062 232.664062 C 174.988281 233.097656 176.332031 233.457031 177.695312 233.746094 C 179.058594 234.035156 180.433594 234.253906 181.816406 234.398438 C 183.203125 234.542969 184.59375 234.617188 185.984375 234.617188 C 187.378906 234.617188 188.765625 234.542969 190.152344 234.398438 C 191.539062 234.253906 192.914062 234.035156 194.273438 233.746094 C 195.636719 233.457031 196.980469 233.097656 198.304688 232.664062 C 199.628906 232.234375 200.929688 231.734375 202.203125 231.167969 C 203.472656 230.601562 204.714844 229.96875 205.917969 229.273438 C 207.125 228.578125 208.292969 227.820312 209.417969 227 C 210.546875 226.179688 211.625 225.304688 212.660156 224.371094 C 213.695312 223.4375 214.679688 222.453125 215.609375 221.417969 Z M 258.796875 221.417969 " fill-opacity="1" fill-rule="nonzero"/></g><path fill="#004aad" d="M 200.589844 172.128906 C 199.582031 171.476562 198.535156 170.894531 197.449219 170.382812 C 196.363281 169.871094 195.246094 169.433594 194.101562 169.070312 C 192.957031 168.707031 191.792969 168.421875 190.609375 168.214844 C 189.425781 168.007812 188.234375 167.882812 187.03125 167.835938 C 185.832031 167.789062 184.636719 167.820312 183.4375 167.933594 C 182.242188 168.046875 181.058594 168.242188 179.890625 168.515625 C 178.722656 168.785156 177.574219 169.136719 176.453125 169.5625 C 175.328125 169.988281 174.238281 170.488281 173.183594 171.0625 C 172.128906 171.632812 171.113281 172.273438 170.144531 172.980469 C 169.175781 173.691406 168.253906 174.460938 167.390625 175.292969 C 166.523438 176.125 165.714844 177.007812 164.964844 177.949219 C 164.21875 178.890625 163.535156 179.875 162.921875 180.90625 C 162.304688 181.9375 161.761719 183.003906 161.289062 184.109375 C 160.816406 185.214844 160.421875 186.34375 160.097656 187.503906 C 159.777344 188.660156 159.535156 189.832031 159.375 191.023438 C 159.210938 192.214844 159.128906 193.410156 159.125 194.609375 C 159.128906 196.847656 159.410156 199.046875 159.964844 201.210938 C 160.519531 203.378906 161.332031 205.441406 162.402344 207.40625 C 163.472656 209.367188 164.765625 211.167969 166.285156 212.808594 C 167.808594 214.449219 169.503906 215.875 171.382812 217.089844 C 172.460938 217.792969 173.589844 218.414062 174.757812 218.953125 C 175.929688 219.492188 177.132812 219.945312 178.371094 220.3125 C 179.605469 220.679688 180.863281 220.953125 182.136719 221.140625 C 183.414062 221.324219 184.695312 221.417969 185.984375 221.417969 C 187.273438 221.417969 188.558594 221.324219 189.832031 221.140625 C 191.109375 220.953125 192.363281 220.679688 193.601562 220.3125 C 194.835938 219.945312 196.039062 219.492188 197.210938 218.953125 C 198.382812 218.414062 199.507812 217.792969 200.589844 217.089844 C 201.054688 216.789062 201.511719 216.46875 201.957031 216.140625 C 202.402344 215.808594 202.839844 215.464844 203.265625 215.105469 C 203.6875 214.746094 204.101562 214.375 204.503906 213.992188 C 204.90625 213.609375 205.296875 213.210938 205.671875 212.804688 C 206.050781 212.394531 206.414062 211.976562 206.765625 211.546875 C 207.117188 211.113281 207.453125 210.675781 207.777344 210.222656 C 208.101562 209.769531 208.410156 209.308594 208.703125 208.839844 C 209 208.367188 209.277344 207.886719 209.542969 207.398438 C 209.808594 206.910156 210.058594 206.414062 210.292969 205.910156 C 210.527344 205.40625 210.746094 204.894531 210.949219 204.378906 C 211.148438 203.863281 211.335938 203.339844 211.507812 202.808594 C 211.675781 202.28125 211.828125 201.746094 211.964844 201.207031 C 212.101562 200.667969 212.222656 200.125 212.324219 199.582031 C 212.429688 199.035156 212.515625 198.484375 212.582031 197.933594 C 212.652344 197.382812 212.703125 196.832031 212.738281 196.277344 C 212.773438 195.722656 212.789062 195.167969 212.789062 194.609375 C 212.789062 194.054688 212.773438 193.5 212.738281 192.945312 C 212.703125 192.390625 212.652344 191.835938 212.582031 191.285156 C 212.515625 190.734375 212.429688 190.1875 212.324219 189.640625 C 212.222656 189.09375 212.101562 188.550781 211.964844 188.011719 C 211.828125 187.472656 211.675781 186.941406 211.507812 186.410156 C 211.335938 185.882812 211.148438 185.359375 210.949219 184.84375 C 210.746094 184.324219 210.527344 183.8125 210.292969 183.308594 C 210.058594 182.804688 209.808594 182.308594 209.542969 181.820312 C 209.277344 181.332031 209 180.851562 208.703125 180.382812 C 208.410156 179.910156 208.101562 179.449219 207.777344 179 C 207.453125 178.546875 207.117188 178.105469 206.765625 177.675781 C 206.414062 177.242188 206.050781 176.824219 205.671875 176.417969 C 205.296875 176.007812 204.90625 175.613281 204.503906 175.226562 C 204.101562 174.84375 203.6875 174.472656 203.265625 174.117188 C 202.839844 173.757812 202.402344 173.414062 201.957031 173.082031 C 201.511719 172.75 201.054688 172.433594 200.589844 172.128906 Z M 185.984375 217.089844 C 185.25 217.089844 184.515625 217.054688 183.78125 216.980469 C 183.050781 216.910156 182.320312 216.800781 181.601562 216.660156 C 180.878906 216.515625 180.164062 216.335938 179.460938 216.121094 C 178.753906 215.910156 178.0625 215.660156 177.382812 215.378906 C 176.703125 215.097656 176.039062 214.78125 175.386719 214.4375 C 174.738281 214.089844 174.109375 213.710938 173.496094 213.300781 C 172.882812 212.894531 172.292969 212.453125 171.722656 211.988281 C 171.15625 211.519531 170.609375 211.027344 170.089844 210.507812 C 169.570312 209.984375 169.074219 209.441406 168.609375 208.871094 C 168.140625 208.300781 167.703125 207.710938 167.292969 207.097656 C 166.886719 206.488281 166.507812 205.855469 166.160156 205.207031 C 165.8125 204.558594 165.5 203.894531 165.214844 203.214844 C 164.933594 202.53125 164.6875 201.839844 164.472656 201.136719 C 164.257812 200.429688 164.082031 199.71875 163.9375 198.996094 C 163.792969 198.273438 163.6875 197.546875 163.613281 196.8125 C 163.542969 196.082031 163.503906 195.347656 163.503906 194.609375 C 163.503906 193.875 163.542969 193.140625 163.613281 192.40625 C 163.6875 191.675781 163.792969 190.945312 163.9375 190.226562 C 164.082031 189.503906 164.257812 188.789062 164.472656 188.085938 C 164.6875 187.378906 164.933594 186.6875 165.214844 186.007812 C 165.5 185.328125 165.8125 184.664062 166.160156 184.011719 C 166.507812 183.363281 166.886719 182.734375 167.292969 182.121094 C 167.703125 181.507812 168.140625 180.917969 168.609375 180.347656 C 169.074219 179.78125 169.570312 179.234375 170.089844 178.714844 C 170.609375 178.195312 171.15625 177.699219 171.722656 177.234375 C 172.292969 176.765625 172.882812 176.328125 173.496094 175.917969 C 174.109375 175.511719 174.738281 175.132812 175.386719 174.785156 C 176.039062 174.4375 176.703125 174.125 177.382812 173.839844 C 178.0625 173.558594 178.753906 173.3125 179.460938 173.097656 C 180.164062 172.886719 180.878906 172.707031 181.601562 172.5625 C 182.320312 172.417969 183.050781 172.3125 183.78125 172.238281 C 184.515625 172.167969 185.25 172.128906 185.984375 172.128906 C 186.722656 172.128906 187.457031 172.167969 188.1875 172.238281 C 188.921875 172.3125 189.648438 172.417969 190.371094 172.5625 C 191.09375 172.707031 191.804688 172.886719 192.511719 173.097656 C 193.214844 173.3125 193.90625 173.558594 194.585938 173.839844 C 195.269531 174.125 195.933594 174.4375 196.582031 174.785156 C 197.230469 175.132812 197.863281 175.511719 198.472656 175.917969 C 199.085938 176.328125 199.675781 176.765625 200.246094 177.234375 C 200.816406 177.699219 201.359375 178.195312 201.882812 178.714844 C 202.402344 179.234375 202.894531 179.78125 203.363281 180.347656 C 203.828125 180.917969 204.265625 181.507812 204.675781 182.121094 C 205.085938 182.734375 205.464844 183.363281 205.8125 184.011719 C 206.15625 184.664062 206.472656 185.328125 206.753906 186.007812 C 207.035156 186.6875 207.285156 187.378906 207.496094 188.085938 C 207.710938 188.789062 207.890625 189.503906 208.03125 190.226562 C 208.175781 190.945312 208.285156 191.675781 208.355469 192.40625 C 208.429688 193.140625 208.464844 193.875 208.464844 194.609375 C 208.464844 195.347656 208.429688 196.082031 208.355469 196.8125 C 208.285156 197.546875 208.175781 198.273438 208.03125 198.996094 C 207.890625 199.71875 207.710938 200.429688 207.496094 201.136719 C 207.285156 201.839844 207.035156 202.53125 206.753906 203.214844 C 206.472656 203.894531 206.15625 204.558594 205.8125 205.207031 C 205.464844 205.855469 205.085938 206.488281 204.675781 207.097656 C 204.265625 207.710938 203.828125 208.300781 203.363281 208.871094 C 202.894531 209.441406 202.402344 209.984375 201.882812 210.507812 C 201.359375 211.027344 200.816406 211.519531 200.246094 211.988281 C 199.675781 212.453125 199.085938 212.894531 198.472656 213.300781 C 197.863281 213.710938 197.230469 214.089844 196.582031 214.4375 C 195.933594 214.78125 195.269531 215.097656 194.585938 215.378906 C 193.90625 215.660156 193.214844 215.910156 192.511719 216.121094 C 191.804688 216.335938 191.09375 216.515625 190.371094 216.660156 C 189.648438 216.800781 188.921875 216.910156 188.1875 216.980469 C 187.457031 217.054688 186.722656 217.089844 185.984375 217.089844 Z M 185.984375 217.089844 " fill-opacity="1" fill-rule="nonzero"/><path fill="#004aad" d="M 204.398438 194.609375 C 204.398438 195.214844 204.367188 195.820312 204.308594 196.421875 C 204.25 197.023438 204.160156 197.621094 204.042969 198.214844 C 203.921875 198.808594 203.777344 199.394531 203.601562 199.972656 C 203.425781 200.550781 203.222656 201.121094 202.988281 201.679688 C 202.757812 202.238281 202.5 202.785156 202.214844 203.320312 C 201.929688 203.851562 201.617188 204.371094 201.28125 204.875 C 200.945312 205.375 200.585938 205.863281 200.199219 206.328125 C 199.816406 206.796875 199.410156 207.246094 198.984375 207.671875 C 198.554688 208.101562 198.105469 208.503906 197.640625 208.890625 C 197.171875 209.273438 196.683594 209.632812 196.183594 209.96875 C 195.679688 210.304688 195.160156 210.613281 194.625 210.898438 C 194.09375 211.183594 193.546875 211.441406 192.988281 211.671875 C 192.425781 211.90625 191.859375 212.109375 191.277344 212.28125 C 190.699219 212.457031 190.113281 212.605469 189.519531 212.722656 C 188.925781 212.839844 188.328125 212.929688 187.726562 212.988281 C 187.125 213.046875 186.519531 213.074219 185.914062 213.074219 C 185.308594 213.074219 184.707031 213.042969 184.105469 212.984375 C 183.503906 212.921875 182.90625 212.835938 182.3125 212.714844 C 181.71875 212.597656 181.132812 212.449219 180.554688 212.273438 C 179.976562 212.097656 179.40625 211.890625 178.847656 211.660156 C 178.289062 211.429688 177.742188 211.167969 177.210938 210.882812 C 176.675781 210.597656 176.15625 210.285156 175.65625 209.949219 C 175.152344 209.613281 174.667969 209.25 174.199219 208.867188 C 173.734375 208.484375 173.285156 208.074219 172.859375 207.648438 C 172.429688 207.21875 172.027344 206.769531 171.644531 206.300781 C 171.261719 205.835938 170.902344 205.347656 170.566406 204.84375 C 170.230469 204.339844 169.921875 203.820312 169.636719 203.289062 C 169.351562 202.753906 169.09375 202.207031 168.863281 201.648438 C 168.632812 201.089844 168.429688 200.519531 168.253906 199.941406 C 168.082031 199.359375 167.933594 198.773438 167.816406 198.179688 C 167.699219 197.585938 167.613281 196.988281 167.554688 196.386719 C 167.496094 195.785156 167.46875 195.179688 167.46875 194.574219 C 167.46875 193.96875 167.5 193.367188 167.5625 192.765625 C 167.621094 192.164062 167.710938 191.566406 167.832031 190.972656 C 167.949219 190.378906 168.097656 189.792969 168.277344 189.214844 C 168.453125 188.636719 168.65625 188.066406 168.890625 187.507812 C 169.121094 186.949219 169.382812 186.402344 169.667969 185.871094 C 169.953125 185.339844 170.265625 184.820312 170.605469 184.316406 C 170.941406 183.816406 171.300781 183.332031 171.6875 182.863281 C 172.070312 182.398438 172.480469 181.949219 172.90625 181.523438 C 173.335938 181.097656 173.785156 180.691406 174.253906 180.308594 C 174.722656 179.925781 175.210938 179.566406 175.714844 179.234375 C 176.21875 178.898438 176.734375 178.589844 177.269531 178.304688 C 177.804688 178.019531 178.351562 177.765625 178.910156 177.535156 C 179.472656 177.304688 180.039062 177.101562 180.621094 176.925781 C 181.199219 176.753906 181.785156 176.609375 182.378906 176.492188 C 182.972656 176.375 183.570312 176.289062 184.175781 176.230469 C 184.777344 176.171875 185.378906 176.144531 185.984375 176.148438 C 186.589844 176.148438 187.191406 176.175781 187.792969 176.234375 C 188.394531 176.296875 188.992188 176.382812 189.582031 176.5 C 190.175781 176.621094 190.761719 176.765625 191.339844 176.941406 C 191.917969 177.117188 192.484375 177.320312 193.042969 177.554688 C 193.601562 177.785156 194.144531 178.042969 194.679688 178.328125 C 195.210938 178.613281 195.730469 178.925781 196.230469 179.261719 C 196.730469 179.597656 197.214844 179.957031 197.683594 180.339844 C 198.148438 180.722656 198.597656 181.128906 199.023438 181.558594 C 199.449219 181.984375 199.855469 182.433594 200.234375 182.902344 C 200.617188 183.367188 200.976562 183.855469 201.3125 184.355469 C 201.648438 184.859375 201.957031 185.378906 202.238281 185.910156 C 202.523438 186.445312 202.78125 186.988281 203.011719 187.546875 C 203.242188 188.105469 203.441406 188.675781 203.617188 189.253906 C 203.789062 189.832031 203.9375 190.417969 204.050781 191.011719 C 204.167969 191.605469 204.253906 192.199219 204.3125 192.800781 C 204.371094 193.402344 204.398438 194.007812 204.398438 194.609375 Z M 204.398438 194.609375 " fill-opacity="1" fill-rule="nonzero"/><g clip-path="url(#040ab03131)"><path fill="#004aad" d="M 338.203125 234.515625 C 334.132812 248.382812 327.914062 261.535156 320.199219 273.648438 C 313.828125 283.507812 306.585938 292.773438 298.445312 301.199219 C 297.390625 302.351562 296.21875 303.382812 295.097656 304.46875 C 293.960938 305.535156 292.859375 306.640625 291.699219 307.679688 L 288.171875 310.75 L 286.40625 312.285156 L 284.574219 313.738281 L 280.921875 316.660156 C 279.683594 317.605469 278.40625 318.5 277.152344 319.425781 C 274.675781 321.324219 272.039062 322.992188 269.457031 324.746094 C 269.085938 324.996094 268.691406 325.257812 268.285156 325.535156 C 267.863281 325.785156 267.429688 326.046875 266.972656 326.324219 C 266.0625 326.867188 265.082031 327.453125 264.035156 328.078125 C 261.976562 329.375 259.535156 330.59375 256.902344 331.992188 C 256.238281 332.335938 255.574219 332.707031 254.871094 333.042969 C 254.167969 333.371094 253.453125 333.703125 252.71875 334.042969 C 251.253906 334.71875 249.738281 335.421875 248.171875 336.144531 C 244.964844 337.398438 241.617188 338.90625 237.96875 340.074219 C 223.558594 345.296875 205.578125 348.527344 187.53125 348.605469 C 169.484375 348.527344 151.5 345.296875 137.09375 340.074219 C 133.441406 338.90625 130.097656 337.398438 126.886719 336.144531 C 125.324219 335.421875 123.804688 334.71875 122.34375 334.042969 C 121.609375 333.703125 120.890625 333.371094 120.1875 333.042969 C 119.488281 332.710938 118.824219 332.335938 118.160156 331.992188 C 115.527344 330.59375 113.085938 329.375 111.023438 328.078125 C 109.980469 327.453125 109 326.867188 108.089844 326.324219 C 107.632812 326.050781 107.195312 325.789062 106.773438 325.535156 C 106.367188 325.261719 105.976562 324.996094 105.605469 324.75 C 95.800781 318.324219 86.589844 311.023438 78.21875 302.828125 C 69.390625 294.007812 61.667969 284.128906 54.863281 273.652344 C 47.144531 261.535156 40.925781 248.382812 36.855469 234.515625 C 32.613281 220.699219 30.65625 206.195312 30.527344 191.691406 C 30.65625 177.1875 32.613281 162.6875 36.855469 148.867188 C 40.925781 135.003906 47.144531 121.847656 54.863281 109.734375 C 61.230469 99.875 68.476562 90.609375 76.613281 82.183594 C 77.667969 81.03125 78.84375 80 79.960938 78.914062 C 81.097656 77.847656 82.199219 76.742188 83.359375 75.703125 L 86.890625 72.632812 L 88.652344 71.097656 L 90.484375 69.644531 L 94.136719 66.726562 C 95.375 65.777344 96.652344 64.882812 97.90625 63.957031 C 100.386719 62.058594 103.019531 60.390625 105.601562 58.636719 C 105.976562 58.386719 106.367188 58.125 106.773438 57.851562 C 107.195312 57.597656 107.632812 57.335938 108.085938 57.058594 C 109 56.515625 109.980469 55.929688 111.023438 55.304688 C 113.085938 54.011719 115.523438 52.789062 118.160156 51.390625 C 118.820312 51.050781 119.484375 50.675781 120.1875 50.339844 C 120.890625 50.011719 121.609375 49.679688 122.339844 49.339844 C 123.804688 48.664062 125.324219 47.960938 126.886719 47.238281 C 130.097656 45.984375 133.441406 44.476562 137.09375 43.308594 C 151.5 38.085938 169.484375 34.855469 187.53125 34.78125 C 205.574219 34.855469 223.558594 38.085938 237.964844 43.308594 C 241.617188 44.476562 244.960938 45.984375 248.171875 47.238281 C 249.738281 47.960938 251.253906 48.664062 252.71875 49.339844 C 253.449219 49.679688 254.167969 50.011719 254.871094 50.339844 C 255.574219 50.675781 256.238281 51.050781 256.898438 51.390625 C 259.53125 52.789062 261.976562 54.011719 264.035156 55.304688 C 265.078125 55.929688 266.058594 56.515625 266.96875 57.058594 C 267.425781 57.332031 267.863281 57.597656 268.285156 57.851562 C 268.691406 58.121094 269.082031 58.386719 269.453125 58.636719 C 279.257812 65.058594 288.46875 72.359375 296.839844 80.554688 C 305.671875 89.375 313.390625 99.257812 320.195312 109.734375 C 327.914062 121.847656 334.132812 135.003906 338.203125 148.867188 C 342.445312 162.6875 344.40625 177.1875 344.53125 191.691406 C 344.40625 206.195312 342.445312 220.699219 338.203125 234.515625 Z M 348.140625 191.585938 L 348.136719 191.570312 C 348.003906 176.761719 346.015625 161.945312 341.699219 147.816406 C 337.550781 133.644531 331.195312 120.191406 323.269531 107.835938 L 319.460938 102.109375 C 319.460938 102.109375 318.363281 100.570312 316.710938 98.261719 C 315.121094 95.902344 312.6875 93 310.363281 90.011719 C 307.859375 87.175781 305.460938 84.25 303.441406 82.253906 C 301.480469 80.207031 300.171875 78.839844 300.171875 78.839844 C 300.171875 78.839844 299.839844 78.503906 299.246094 77.929688 C 298.648438 77.355469 297.800781 76.535156 296.78125 75.550781 C 294.789062 73.523438 291.902344 71.082031 289.070312 68.574219 C 287.617188 67.367188 286.121094 66.210938 284.738281 65.097656 C 284.046875 64.546875 283.375 64.015625 282.738281 63.507812 C 282.082031 63.03125 281.457031 62.585938 280.882812 62.167969 C 278.582031 60.507812 277.046875 59.402344 277.046875 59.402344 C 277.046875 59.402344 276.714844 59.132812 276.175781 58.78125 C 275.636719 58.425781 274.925781 57.949219 274.214844 57.46875 C 272.785156 56.515625 271.359375 55.558594 271.359375 55.558594 C 270.976562 55.300781 270.578125 55.03125 270.164062 54.75 C 269.734375 54.488281 269.285156 54.21875 268.820312 53.9375 C 267.890625 53.378906 266.886719 52.777344 265.820312 52.136719 C 263.714844 50.808594 261.21875 49.554688 258.523438 48.117188 C 257.847656 47.765625 257.167969 47.386719 256.449219 47.042969 C 255.730469 46.703125 254.996094 46.363281 254.25 46.015625 C 252.75 45.320312 251.195312 44.601562 249.59375 43.859375 C 246.3125 42.566406 242.886719 41.03125 239.152344 39.828125 C 224.40625 34.472656 205.992188 31.152344 187.53125 31.082031 C 169.066406 31.152344 150.652344 34.472656 135.90625 39.828125 C 132.171875 41.03125 128.746094 42.570312 125.460938 43.859375 C 123.859375 44.601562 122.308594 45.320312 120.8125 46.015625 C 120.0625 46.363281 119.328125 46.707031 118.605469 47.042969 C 117.890625 47.386719 117.210938 47.765625 116.53125 48.117188 C 113.839844 49.554688 111.34375 50.808594 109.234375 52.136719 C 108.171875 52.777344 107.167969 53.378906 106.238281 53.9375 C 105.773438 54.21875 105.324219 54.492188 104.894531 54.75 C 104.476562 55.035156 104.078125 55.300781 103.699219 55.558594 C 103.699219 55.558594 102.273438 56.515625 100.84375 57.46875 C 100.132812 57.949219 99.417969 58.425781 98.886719 58.78125 C 98.34375 59.132812 98.011719 59.402344 98.011719 59.402344 C 98.011719 59.402344 96.476562 60.507812 94.175781 62.167969 C 93.601562 62.585938 92.980469 63.03125 92.320312 63.507812 C 91.683594 64.015625 91.015625 64.546875 90.320312 65.097656 C 88.9375 66.210938 87.441406 67.367188 85.988281 68.574219 C 83.15625 71.082031 80.269531 73.523438 78.277344 75.550781 C 77.257812 76.535156 76.410156 77.355469 75.816406 77.929688 C 75.21875 78.503906 74.886719 78.839844 74.886719 78.839844 C 74.886719 78.839844 73.578125 80.207031 71.617188 82.253906 C 69.597656 84.25 67.199219 87.175781 64.695312 90.011719 C 62.371094 93 59.9375 95.90625 58.347656 98.261719 C 56.695312 100.570312 55.59375 102.109375 55.59375 102.109375 L 51.789062 107.835938 C 43.867188 120.191406 37.511719 133.644531 33.359375 147.816406 C 29.046875 161.945312 27.054688 176.765625 26.921875 191.574219 L 26.917969 191.585938 L 26.917969 191.796875 L 26.921875 191.8125 C 27.054688 206.621094 29.046875 221.4375 33.359375 235.566406 C 37.511719 249.742188 43.867188 263.191406 51.789062 275.550781 L 55.597656 281.273438 C 55.597656 281.273438 56.699219 282.8125 58.347656 285.121094 C 59.9375 287.480469 62.371094 290.382812 64.695312 293.371094 C 67.199219 296.207031 69.597656 299.132812 71.617188 301.128906 C 73.578125 303.175781 74.886719 304.542969 74.886719 304.542969 C 74.886719 304.542969 75.21875 304.878906 75.816406 305.453125 C 76.410156 306.027344 77.257812 306.847656 78.277344 307.832031 C 80.269531 309.859375 83.15625 312.300781 85.988281 314.808594 C 87.441406 316.015625 88.9375 317.171875 90.320312 318.285156 C 91.015625 318.835938 91.683594 319.367188 92.320312 319.875 C 92.980469 320.351562 93.601562 320.800781 94.175781 321.214844 C 96.476562 322.875 98.011719 323.980469 98.011719 323.980469 C 98.011719 323.980469 98.34375 324.253906 98.886719 324.601562 C 99.421875 324.960938 100.132812 325.4375 100.84375 325.914062 C 102.273438 326.871094 103.699219 327.824219 103.699219 327.824219 C 104.082031 328.082031 104.480469 328.351562 104.894531 328.632812 C 105.324219 328.894531 105.773438 329.164062 106.238281 329.445312 C 107.167969 330.003906 108.171875 330.605469 109.238281 331.246094 C 111.34375 332.574219 113.839844 333.828125 116.535156 335.265625 C 117.210938 335.617188 117.894531 336 118.609375 336.34375 C 119.328125 336.679688 120.0625 337.019531 120.8125 337.371094 C 122.308594 338.0625 123.863281 338.78125 125.464844 339.523438 C 128.746094 340.816406 132.171875 342.351562 135.90625 343.554688 C 150.652344 348.914062 169.066406 352.230469 187.53125 352.304688 C 205.992188 352.230469 224.40625 348.914062 239.152344 343.554688 C 242.886719 342.351562 246.3125 340.8125 249.597656 339.523438 C 251.199219 338.78125 252.75 338.0625 254.25 337.367188 C 254.996094 337.019531 255.730469 336.675781 256.453125 336.34375 C 257.167969 336 257.847656 335.617188 258.527344 335.265625 C 261.21875 333.828125 263.714844 332.574219 265.824219 331.246094 C 266.890625 330.605469 267.890625 330.003906 268.824219 329.445312 C 269.285156 329.164062 269.734375 328.890625 270.164062 328.632812 C 270.582031 328.351562 270.980469 328.082031 271.359375 327.824219 C 271.359375 327.824219 272.785156 326.871094 274.214844 325.914062 C 274.925781 325.4375 275.640625 324.960938 276.175781 324.601562 C 276.714844 324.253906 277.046875 323.980469 277.046875 323.980469 C 277.046875 323.980469 278.582031 322.875 280.882812 321.214844 C 281.457031 320.800781 282.082031 320.351562 282.738281 319.875 C 283.375 319.367188 284.046875 318.835938 284.738281 318.285156 C 286.121094 317.171875 287.617188 316.015625 289.070312 314.808594 C 291.902344 312.300781 294.789062 309.859375 296.78125 307.832031 C 297.800781 306.847656 298.648438 306.027344 299.246094 305.453125 C 299.839844 304.878906 300.171875 304.542969 300.171875 304.542969 C 300.171875 304.542969 301.480469 303.175781 303.441406 301.128906 C 305.460938 299.132812 307.859375 296.207031 310.363281 293.371094 C 312.6875 290.382812 315.121094 287.476562 316.710938 285.121094 C 318.363281 282.8125 319.460938 281.273438 319.460938 281.273438 L 323.269531 275.550781 C 331.195312 263.191406 337.550781 249.738281 341.699219 235.566406 C 346.015625 221.4375 348.003906 206.617188 348.136719 191.808594 L 348.140625 191.796875 L 348.140625 191.585938 " fill-opacity="1" fill-rule="nonzero"/></g><g clip-path="url(#2232a3ff84)"><path fill="#004aad" d="M 338.203125 144.84375 C 334.132812 130.980469 327.914062 117.828125 320.199219 105.710938 C 313.828125 95.855469 306.585938 86.589844 298.445312 78.160156 C 297.390625 77.007812 296.21875 75.980469 295.097656 74.890625 C 293.960938 73.824219 292.859375 72.722656 291.699219 71.679688 L 288.171875 68.613281 L 286.40625 67.078125 L 284.574219 65.625 L 280.921875 62.703125 C 279.683594 61.757812 278.40625 60.863281 277.152344 59.933594 C 274.675781 58.039062 272.039062 56.371094 269.457031 54.613281 C 269.085938 54.363281 268.691406 54.101562 268.285156 53.828125 C 267.863281 53.574219 267.429688 53.3125 266.972656 53.039062 C 266.0625 52.492188 265.082031 51.90625 264.035156 51.285156 C 261.976562 49.988281 259.535156 48.769531 256.902344 47.367188 C 256.238281 47.027344 255.574219 46.652344 254.871094 46.320312 C 254.167969 45.992188 253.453125 45.65625 252.71875 45.316406 C 251.253906 44.640625 249.738281 43.941406 248.171875 43.21875 C 244.964844 41.960938 241.617188 40.457031 237.96875 39.289062 C 223.558594 34.0625 205.578125 30.832031 187.53125 30.757812 C 169.484375 30.832031 151.5 34.0625 137.09375 39.289062 C 133.441406 40.457031 130.097656 41.960938 126.886719 43.21875 C 125.324219 43.941406 123.804688 44.640625 122.34375 45.316406 C 121.609375 45.65625 120.890625 45.992188 120.1875 46.316406 C 119.488281 46.652344 118.824219 47.027344 118.160156 47.367188 C 115.527344 48.769531 113.085938 49.988281 111.023438 51.285156 C 109.980469 51.90625 109 52.492188 108.089844 53.039062 C 107.632812 53.3125 107.195312 53.574219 106.773438 53.828125 C 106.367188 54.101562 105.976562 54.363281 105.605469 54.613281 C 95.800781 61.039062 86.589844 68.335938 78.21875 76.535156 C 69.390625 85.355469 61.667969 95.234375 54.863281 105.710938 C 47.144531 117.828125 40.925781 130.980469 36.855469 144.84375 C 32.613281 158.664062 30.65625 173.167969 30.527344 187.671875 C 30.65625 202.171875 32.613281 216.675781 36.855469 230.496094 C 40.925781 244.359375 47.144531 257.511719 54.863281 269.628906 C 61.230469 279.484375 68.476562 288.75 76.613281 297.179688 C 77.667969 298.332031 78.84375 299.363281 79.960938 300.449219 C 81.097656 301.515625 82.199219 302.617188 83.359375 303.660156 L 86.890625 306.726562 L 88.652344 308.265625 L 90.484375 309.71875 L 94.136719 312.636719 C 95.375 313.582031 96.652344 314.476562 97.90625 315.40625 C 100.386719 317.300781 103.019531 318.96875 105.601562 320.726562 C 105.976562 320.976562 106.367188 321.238281 106.773438 321.511719 C 107.195312 321.765625 107.632812 322.027344 108.085938 322.300781 C 109 322.847656 109.980469 323.433594 111.023438 324.054688 C 113.085938 325.351562 115.523438 326.570312 118.160156 327.972656 C 118.820312 328.3125 119.484375 328.6875 120.1875 329.019531 C 120.890625 329.347656 121.609375 329.683594 122.339844 330.023438 C 123.804688 330.699219 125.324219 331.398438 126.886719 332.121094 C 130.097656 333.378906 133.441406 334.882812 137.09375 336.050781 C 151.5 341.277344 169.484375 344.507812 187.53125 344.582031 C 205.574219 344.507812 223.558594 341.277344 237.964844 336.050781 C 241.617188 334.882812 244.960938 333.378906 248.171875 332.121094 C 249.738281 331.398438 251.253906 330.699219 252.71875 330.023438 C 253.449219 329.683594 254.167969 329.347656 254.871094 329.023438 C 255.574219 328.6875 256.238281 328.3125 256.898438 327.972656 C 259.53125 326.574219 261.976562 325.351562 264.035156 324.058594 C 265.078125 323.433594 266.058594 322.847656 266.96875 322.300781 C 267.425781 322.027344 267.863281 321.765625 268.285156 321.511719 C 268.691406 321.238281 269.082031 320.976562 269.453125 320.726562 C 279.257812 314.300781 288.46875 307.003906 296.839844 298.804688 C 305.671875 289.984375 313.390625 280.105469 320.195312 269.628906 C 327.914062 257.515625 334.132812 244.359375 338.203125 230.496094 C 342.445312 216.675781 344.40625 202.171875 344.53125 187.671875 C 344.40625 173.167969 342.445312 158.664062 338.203125 144.84375 Z M 348.140625 187.777344 L 348.136719 187.789062 C 348.003906 202.597656 346.015625 217.417969 341.699219 231.546875 C 337.550781 245.71875 331.195312 259.171875 323.269531 271.527344 L 319.460938 277.253906 C 319.460938 277.253906 318.363281 278.792969 316.710938 281.101562 C 315.121094 283.457031 312.6875 286.363281 310.363281 289.347656 C 307.859375 292.183594 305.460938 295.113281 303.441406 297.105469 C 301.480469 299.15625 300.171875 300.519531 300.171875 300.519531 C 300.171875 300.519531 299.839844 300.859375 299.246094 301.429688 C 298.648438 302.003906 297.800781 302.828125 296.78125 303.8125 C 294.789062 305.839844 291.902344 308.28125 289.070312 310.785156 C 287.617188 311.992188 286.121094 313.152344 284.738281 314.261719 C 284.046875 314.8125 283.375 315.347656 282.738281 315.855469 C 282.082031 316.328125 281.457031 316.777344 280.882812 317.191406 C 278.582031 318.851562 277.046875 319.957031 277.046875 319.957031 C 277.046875 319.957031 276.714844 320.230469 276.175781 320.582031 C 275.636719 320.9375 274.925781 321.414062 274.214844 321.894531 C 272.785156 322.847656 271.359375 323.804688 271.359375 323.804688 C 270.976562 324.058594 270.578125 324.328125 270.164062 324.609375 C 269.734375 324.871094 269.285156 325.140625 268.820312 325.421875 C 267.890625 325.984375 266.886719 326.585938 265.820312 327.226562 C 263.714844 328.554688 261.21875 329.808594 258.523438 331.242188 C 257.847656 331.59375 257.167969 331.976562 256.449219 332.320312 C 255.730469 332.65625 254.996094 333 254.25 333.347656 C 252.75 334.042969 251.195312 334.761719 249.59375 335.503906 C 246.3125 336.792969 242.886719 338.332031 239.152344 339.535156 C 224.40625 344.890625 205.992188 348.210938 187.53125 348.28125 C 169.066406 348.210938 150.652344 344.890625 135.90625 339.535156 C 132.171875 338.332031 128.746094 336.792969 125.460938 335.5 C 123.859375 334.761719 122.308594 334.042969 120.8125 333.347656 C 120.0625 333 119.328125 332.65625 118.605469 332.320312 C 117.890625 331.976562 117.210938 331.59375 116.53125 331.242188 C 113.839844 329.808594 111.34375 328.554688 109.234375 327.226562 C 108.171875 326.585938 107.167969 325.980469 106.238281 325.421875 C 105.773438 325.140625 105.324219 324.871094 104.894531 324.609375 C 104.476562 324.328125 104.078125 324.058594 103.699219 323.804688 C 103.699219 323.804688 102.273438 322.847656 100.84375 321.894531 C 100.132812 321.414062 99.417969 320.9375 98.886719 320.578125 C 98.34375 320.230469 98.011719 319.957031 98.011719 319.957031 C 98.011719 319.957031 96.476562 318.851562 94.175781 317.191406 C 93.601562 316.777344 92.980469 316.328125 92.320312 315.855469 C 91.683594 315.347656 91.015625 314.8125 90.320312 314.261719 C 88.9375 313.152344 87.441406 311.992188 85.988281 310.785156 C 83.15625 308.28125 80.269531 305.839844 78.277344 303.8125 C 77.257812 302.828125 76.410156 302.003906 75.816406 301.429688 C 75.21875 300.859375 74.886719 300.519531 74.886719 300.519531 C 74.886719 300.519531 73.578125 299.15625 71.617188 297.105469 C 69.597656 295.113281 67.199219 292.183594 64.695312 289.347656 C 62.371094 286.363281 59.9375 283.457031 58.347656 281.101562 C 56.695312 278.789062 55.59375 277.25 55.59375 277.25 L 51.789062 271.527344 C 43.867188 259.171875 37.511719 245.71875 33.359375 231.546875 C 29.046875 217.414062 27.054688 202.597656 26.921875 187.789062 L 26.917969 187.777344 L 26.917969 187.5625 L 26.921875 187.550781 C 27.054688 172.742188 29.046875 157.921875 33.359375 143.792969 C 37.511719 129.621094 43.867188 116.167969 51.789062 103.8125 L 55.597656 98.089844 C 55.597656 98.089844 56.699219 96.546875 58.347656 94.238281 C 59.9375 91.882812 62.371094 88.976562 64.695312 85.992188 C 67.199219 83.15625 69.597656 80.230469 71.617188 78.234375 C 73.578125 76.183594 74.886719 74.820312 74.886719 74.820312 C 74.886719 74.820312 75.21875 74.480469 75.816406 73.910156 C 76.410156 73.335938 77.257812 72.511719 78.277344 71.527344 C 80.269531 69.5 83.15625 67.058594 85.988281 64.554688 C 87.441406 63.347656 88.9375 62.191406 90.320312 61.078125 C 91.015625 60.527344 91.683594 59.992188 92.320312 59.488281 C 92.980469 59.011719 93.601562 58.5625 94.175781 58.148438 C 96.476562 56.488281 98.011719 55.382812 98.011719 55.382812 C 98.011719 55.382812 98.34375 55.109375 98.886719 54.761719 C 99.421875 54.402344 100.132812 53.925781 100.84375 53.449219 C 102.273438 52.492188 103.699219 51.539062 103.699219 51.539062 C 104.082031 51.28125 104.480469 51.011719 104.894531 50.730469 C 105.324219 50.46875 105.773438 50.199219 106.238281 49.917969 C 107.167969 49.355469 108.171875 48.757812 109.238281 48.117188 C 111.34375 46.785156 113.839844 45.53125 116.535156 44.097656 C 117.210938 43.746094 117.894531 43.363281 118.609375 43.019531 C 119.328125 42.683594 120.0625 42.339844 120.8125 41.992188 C 122.308594 41.296875 123.863281 40.578125 125.464844 39.835938 C 128.746094 38.546875 132.171875 37.007812 135.90625 35.804688 C 150.652344 30.449219 169.066406 27.132812 187.53125 27.058594 C 205.992188 27.132812 224.40625 30.449219 239.152344 35.808594 C 242.886719 37.007812 246.3125 38.546875 249.597656 39.839844 C 251.199219 40.578125 252.75 41.296875 254.25 41.992188 C 254.996094 42.34375 255.730469 42.683594 256.453125 43.019531 C 257.167969 43.363281 257.847656 43.746094 258.527344 44.097656 C 261.21875 45.53125 263.714844 46.785156 265.824219 48.117188 C 266.890625 48.757812 267.890625 49.359375 268.824219 49.917969 C 269.285156 50.199219 269.734375 50.46875 270.164062 50.730469 C 270.582031 51.011719 270.980469 51.28125 271.359375 51.539062 C 271.359375 51.539062 272.785156 52.492188 274.214844 53.449219 C 274.925781 53.925781 275.640625 54.402344 276.175781 54.761719 C 276.714844 55.109375 277.046875 55.382812 277.046875 55.382812 C 277.046875 55.382812 278.582031 56.488281 280.882812 58.148438 C 281.457031 58.5625 282.082031 59.011719 282.738281 59.488281 C 283.375 59.992188 284.046875 60.527344 284.738281 61.078125 C 286.121094 62.191406 287.617188 63.347656 289.070312 64.554688 C 291.902344 67.058594 294.789062 69.5 296.78125 71.527344 C 297.800781 72.511719 298.648438 73.335938 299.246094 73.910156 C 299.839844 74.480469 300.171875 74.820312 300.171875 74.820312 C 300.171875 74.820312 301.480469 76.183594 303.441406 78.234375 C 305.460938 80.230469 307.859375 83.15625 310.363281 85.992188 C 312.6875 88.976562 315.121094 91.882812 316.710938 94.238281 C 318.363281 96.550781 319.460938 98.089844 319.460938 98.089844 L 323.269531 103.8125 C 331.195312 116.167969 337.550781 129.621094 341.699219 143.792969 C 346.015625 157.925781 348.003906 172.742188 348.136719 187.550781 L 348.140625 187.5625 L 348.140625 187.777344 " fill-opacity="1" fill-rule="nonzero"/></g><g fill="#004aad" fill-opacity="1"><g transform="translate(86.685133, 124.451423)"><g><path d="M -14.171875 -13.09375 L -12.609375 -15.28125 L 2.953125 -4.109375 L 1.390625 -1.921875 Z M -15.109375 -15.4375 C -15.378906 -15.0625 -15.734375 -14.832031 -16.171875 -14.75 C -16.609375 -14.664062 -17.035156 -14.769531 -17.453125 -15.0625 C -17.878906 -15.375 -18.117188 -15.75 -18.171875 -16.1875 C -18.234375 -16.625 -18.128906 -17.03125 -17.859375 -17.40625 C -17.585938 -17.78125 -17.234375 -18.007812 -16.796875 -18.09375 C -16.367188 -18.1875 -15.941406 -18.078125 -15.515625 -17.765625 C -15.097656 -17.472656 -14.859375 -17.101562 -14.796875 -16.65625 C -14.734375 -16.21875 -14.835938 -15.8125 -15.109375 -15.4375 Z M -15.109375 -15.4375 "/></g></g></g><g fill="#004aad" fill-opacity="1"><g transform="translate(94.989505, 112.941838)"><g><path d="M 11.0625 -10.859375 C 10.289062 -11.054688 9.421875 -11.273438 8.453125 -11.515625 C 7.484375 -11.765625 6.460938 -12 5.390625 -12.21875 C 4.328125 -12.4375 3.226562 -12.65625 2.09375 -12.875 C 0.96875 -13.09375 -0.128906 -13.285156 -1.203125 -13.453125 C -2.273438 -13.617188 -3.296875 -13.765625 -4.265625 -13.890625 C -5.242188 -14.015625 -6.128906 -14.109375 -6.921875 -14.171875 L 3.5625 -3.5 L 1.6875 -1.671875 L -11.734375 -15.34375 L -10.21875 -16.828125 C -8.945312 -16.765625 -7.53125 -16.640625 -5.96875 -16.453125 C -4.40625 -16.273438 -2.820312 -16.066406 -1.21875 -15.828125 C 0.375 -15.585938 1.914062 -15.316406 3.40625 -15.015625 C 4.894531 -14.710938 6.191406 -14.421875 7.296875 -14.140625 L -2.640625 -24.265625 L -0.765625 -26.109375 L 12.65625 -12.4375 Z M 11.0625 -10.859375 "/></g></g></g><g fill="#004aad" fill-opacity="1"><g transform="translate(114.537908, 94.974509)"><g><path d="M 2.359375 -24.328125 L 3.625 -22.375 L -1.4375 -19.109375 L 7.6875 -4.96875 L 5.4375 -3.515625 L -3.6875 -17.65625 L -8.75 -14.375 L -10.015625 -16.328125 Z M 2.359375 -24.328125 "/></g></g></g><g fill="#004aad" fill-opacity="1"><g transform="translate(133.516033, 83.444062)"><g><path d="M 2.203125 -0.890625 L -5.03125 -18.625 L 5.78125 -23.046875 L 6.65625 -20.921875 L -1.671875 -17.515625 L 0.46875 -12.25 L 7.890625 -15.28125 L 8.75 -13.203125 L 1.328125 -10.171875 L 3.828125 -4.03125 L 12.8125 -7.703125 L 13.671875 -5.578125 Z M 2.203125 -0.890625 "/></g></g></g><g fill="#004aad" fill-opacity="1"><g transform="translate(154.387618, 75.537613)"><g><path d="M 9.984375 -10.125 C 10.335938 -9.820312 10.796875 -9.421875 11.359375 -8.921875 C 11.921875 -8.421875 12.503906 -7.859375 13.109375 -7.234375 C 13.722656 -6.617188 14.332031 -5.96875 14.9375 -5.28125 C 15.550781 -4.59375 16.097656 -3.914062 16.578125 -3.25 L 13.6875 -2.6875 C 13.195312 -3.300781 12.671875 -3.914062 12.109375 -4.53125 C 11.554688 -5.15625 10.992188 -5.75 10.421875 -6.3125 C 9.859375 -6.875 9.3125 -7.390625 8.78125 -7.859375 C 8.25 -8.335938 7.765625 -8.75 7.328125 -9.09375 C 7.109375 -9.03125 6.875 -8.972656 6.625 -8.921875 C 6.382812 -8.878906 6.140625 -8.832031 5.890625 -8.78125 L 3.53125 -8.3125 L 4.96875 -0.96875 L 2.328125 -0.453125 L -1.296875 -18.96875 C -0.585938 -19.300781 0.210938 -19.585938 1.109375 -19.828125 C 2.003906 -20.078125 2.835938 -20.273438 3.609375 -20.421875 C 6.242188 -20.941406 8.347656 -20.835938 9.921875 -20.109375 C 11.503906 -19.390625 12.488281 -18.046875 12.875 -16.078125 C 13.125 -14.828125 13.003906 -13.691406 12.515625 -12.671875 C 12.023438 -11.660156 11.179688 -10.8125 9.984375 -10.125 Z M 4.28125 -18.171875 C 3.15625 -17.953125 2.300781 -17.753906 1.71875 -17.578125 L 3.09375 -10.484375 L 4.96875 -10.859375 C 5.863281 -11.035156 6.664062 -11.238281 7.375 -11.46875 C 8.082031 -11.707031 8.660156 -12 9.109375 -12.34375 C 9.566406 -12.695312 9.882812 -13.128906 10.0625 -13.640625 C 10.238281 -14.148438 10.253906 -14.789062 10.109375 -15.5625 C 9.972656 -16.269531 9.722656 -16.832031 9.359375 -17.25 C 8.992188 -17.664062 8.550781 -17.960938 8.03125 -18.140625 C 7.519531 -18.316406 6.941406 -18.398438 6.296875 -18.390625 C 5.660156 -18.378906 4.988281 -18.304688 4.28125 -18.171875 Z M 4.28125 -18.171875 "/></g></g></g><g fill="#004aad" fill-opacity="1"><g transform="translate(177.977415, 71.631932)"><g><path d="M 2.375 0 L 2.359375 -19.15625 L 14.046875 -19.15625 L 14.0625 -16.859375 L 5.0625 -16.859375 L 5.0625 -11.171875 L 13.078125 -11.171875 L 13.078125 -8.921875 L 5.0625 -8.921875 L 5.0625 -2.296875 L 14.765625 -2.296875 L 14.765625 0 Z M 2.375 0 "/></g></g></g><g fill="#004aad" fill-opacity="1"><g transform="translate(200.367145, 72.27629)"><g><path d="M 7.0625 -0.640625 C 9.8125 -0.128906 11.363281 -0.816406 11.71875 -2.703125 C 11.820312 -3.285156 11.785156 -3.800781 11.609375 -4.25 C 11.441406 -4.707031 11.175781 -5.125 10.8125 -5.5 C 10.457031 -5.875 10.03125 -6.21875 9.53125 -6.53125 C 9.03125 -6.84375 8.503906 -7.164062 7.953125 -7.5 C 7.304688 -7.851562 6.703125 -8.238281 6.140625 -8.65625 C 5.578125 -9.070312 5.109375 -9.523438 4.734375 -10.015625 C 4.367188 -10.503906 4.101562 -11.050781 3.9375 -11.65625 C 3.78125 -12.269531 3.78125 -12.976562 3.9375 -13.78125 C 4.238281 -15.425781 5.03125 -16.601562 6.3125 -17.3125 C 7.601562 -18.03125 9.238281 -18.207031 11.21875 -17.84375 C 12.351562 -17.632812 13.367188 -17.320312 14.265625 -16.90625 C 15.160156 -16.488281 15.796875 -16.097656 16.171875 -15.734375 L 14.921875 -13.75 C 14.585938 -14.039062 14.066406 -14.375 13.359375 -14.75 C 12.648438 -15.125 11.800781 -15.398438 10.8125 -15.578125 C 10.300781 -15.679688 9.816406 -15.710938 9.359375 -15.671875 C 8.898438 -15.640625 8.488281 -15.546875 8.125 -15.390625 C 7.757812 -15.234375 7.453125 -15.003906 7.203125 -14.703125 C 6.953125 -14.398438 6.785156 -14.023438 6.703125 -13.578125 C 6.609375 -13.066406 6.625 -12.617188 6.75 -12.234375 C 6.882812 -11.859375 7.109375 -11.503906 7.421875 -11.171875 C 7.742188 -10.835938 8.125 -10.519531 8.5625 -10.21875 C 9 -9.914062 9.488281 -9.601562 10.03125 -9.28125 C 10.78125 -8.8125 11.46875 -8.347656 12.09375 -7.890625 C 12.71875 -7.441406 13.234375 -6.941406 13.640625 -6.390625 C 14.054688 -5.847656 14.335938 -5.234375 14.484375 -4.546875 C 14.640625 -3.867188 14.640625 -3.09375 14.484375 -2.21875 C 14.179688 -0.570312 13.34375 0.582031 11.96875 1.25 C 10.601562 1.925781 8.828125 2.0625 6.640625 1.65625 C 5.890625 1.519531 5.210938 1.34375 4.609375 1.125 C 4.003906 0.90625 3.46875 0.679688 3 0.453125 C 2.539062 0.234375 2.148438 0.015625 1.828125 -0.203125 C 1.503906 -0.429688 1.25 -0.613281 1.0625 -0.75 L 2.265625 -2.796875 C 2.628906 -2.484375 3.210938 -2.101562 4.015625 -1.65625 C 4.816406 -1.207031 5.832031 -0.867188 7.0625 -0.640625 Z M 7.0625 -0.640625 "/></g></g></g><g fill="#004aad" fill-opacity="1"><g transform="translate(221.236602, 76.69748)"><g><path d="M 21 -12.484375 L 20.171875 -10.3125 L 14.546875 -12.453125 L 8.546875 3.265625 L 6.046875 2.3125 L 12.046875 -13.40625 L 6.40625 -15.5625 L 7.234375 -17.734375 Z M 21 -12.484375 "/></g></g></g><g fill="#004aad" fill-opacity="1"><g transform="translate(241.917423, 85.489643)"><g><path d="M 11.5625 -15.46875 L 13.890625 -14.125 L 4.390625 2.515625 L 2.0625 1.171875 Z M 13.796875 -16.640625 C 13.390625 -16.867188 13.117188 -17.195312 12.984375 -17.625 C 12.859375 -18.050781 12.921875 -18.488281 13.171875 -18.9375 C 13.429688 -19.382812 13.773438 -19.660156 14.203125 -19.765625 C 14.640625 -19.867188 15.0625 -19.804688 15.46875 -19.578125 C 15.863281 -19.347656 16.125 -19.019531 16.25 -18.59375 C 16.382812 -18.164062 16.320312 -17.726562 16.0625 -17.28125 C 15.8125 -16.832031 15.46875 -16.554688 15.03125 -16.453125 C 14.601562 -16.347656 14.191406 -16.410156 13.796875 -16.640625 Z M 13.796875 -16.640625 "/></g></g></g><g fill="#004aad" fill-opacity="1"><g transform="translate(254.225499, 92.554485)"><g><path d="M 11.953125 9.859375 C 12.066406 9.085938 12.191406 8.207031 12.328125 7.21875 C 12.472656 6.226562 12.597656 5.1875 12.703125 4.09375 C 12.816406 3 12.921875 1.878906 13.015625 0.734375 C 13.109375 -0.398438 13.1875 -1.507812 13.25 -2.59375 C 13.3125 -3.6875 13.351562 -4.722656 13.375 -5.703125 C 13.394531 -6.679688 13.394531 -7.5625 13.375 -8.34375 L 3.859375 3.1875 L 1.828125 1.515625 L 14.015625 -13.265625 L 15.65625 -11.921875 C 15.738281 -10.648438 15.769531 -9.226562 15.75 -7.65625 C 15.738281 -6.082031 15.691406 -4.488281 15.609375 -2.875 C 15.535156 -1.257812 15.425781 0.300781 15.28125 1.8125 C 15.144531 3.332031 14.992188 4.660156 14.828125 5.796875 L 23.859375 -5.15625 L 25.875 -3.484375 L 13.6875 11.296875 Z M 11.953125 9.859375 "/></g></g></g><g fill="#004aad" fill-opacity="1"><g transform="translate(274.144048, 109.980456)"><g><path d="M 16.09375 5.234375 L 17.75 7.34375 L 10.71875 12.875 C 10.519531 12.75 10.253906 12.550781 9.921875 12.28125 C 9.597656 12.007812 9.234375 11.6875 8.828125 11.3125 C 8.429688 10.945312 8.003906 10.53125 7.546875 10.0625 C 7.085938 9.59375 6.65625 9.097656 6.25 8.578125 C 5.414062 7.515625 4.832031 6.414062 4.5 5.28125 C 4.164062 4.144531 4.085938 3 4.265625 1.84375 C 4.441406 0.695312 4.882812 -0.421875 5.59375 -1.515625 C 6.300781 -2.617188 7.285156 -3.664062 8.546875 -4.65625 C 9.804688 -5.65625 11.070312 -6.347656 12.34375 -6.734375 C 13.625 -7.117188 14.851562 -7.242188 16.03125 -7.109375 C 17.207031 -6.972656 18.3125 -6.601562 19.34375 -6 C 20.382812 -5.40625 21.300781 -4.609375 22.09375 -3.609375 C 22.625 -2.929688 23.050781 -2.289062 23.375 -1.6875 C 23.707031 -1.09375 23.960938 -0.5625 24.140625 -0.09375 C 24.316406 0.363281 24.441406 0.757812 24.515625 1.09375 C 24.585938 1.425781 24.628906 1.660156 24.640625 1.796875 L 22.359375 2.5 C 22.304688 1.863281 22.097656 1.125 21.734375 0.28125 C 21.367188 -0.550781 20.898438 -1.328125 20.328125 -2.046875 C 19.722656 -2.816406 19.035156 -3.410156 18.265625 -3.828125 C 17.492188 -4.242188 16.671875 -4.46875 15.796875 -4.5 C 14.929688 -4.53125 14.03125 -4.375 13.09375 -4.03125 C 12.15625 -3.6875 11.222656 -3.148438 10.296875 -2.421875 C 9.390625 -1.710938 8.648438 -0.960938 8.078125 -0.171875 C 7.515625 0.609375 7.132812 1.421875 6.9375 2.265625 C 6.738281 3.109375 6.738281 3.957031 6.9375 4.8125 C 7.144531 5.664062 7.585938 6.523438 8.265625 7.390625 C 8.742188 7.992188 9.179688 8.484375 9.578125 8.859375 C 9.984375 9.234375 10.289062 9.492188 10.5 9.640625 Z M 16.09375 5.234375 "/></g></g></g><g fill="#004aad" fill-opacity="1"><g transform="translate(59.325361, 247.731153)"><g><path d="M 1.0625 2.125 L 18.21875 -6.40625 L 23.359375 3.953125 L 21.296875 4.984375 L 17.34375 -2.96875 L 12.171875 -0.390625 L 15.671875 6.671875 L 13.640625 7.671875 L 10.140625 0.609375 L 2.25 4.53125 Z M 1.0625 2.125 "/></g></g></g><g fill="#004aad" fill-opacity="1"><g transform="translate(70.819638, 269.415097)"><g><path d="M 8.546875 -4.640625 C 9.828125 -5.648438 11.113281 -6.347656 12.40625 -6.734375 C 13.695312 -7.128906 14.929688 -7.253906 16.109375 -7.109375 C 17.285156 -6.960938 18.382812 -6.578125 19.40625 -5.953125 C 20.425781 -5.335938 21.320312 -4.535156 22.09375 -3.546875 C 22.851562 -2.578125 23.40625 -1.53125 23.75 -0.40625 C 24.09375 0.71875 24.1875 1.863281 24.03125 3.03125 C 23.882812 4.207031 23.460938 5.375 22.765625 6.53125 C 22.078125 7.6875 21.09375 8.769531 19.8125 9.78125 C 18.507812 10.789062 17.21875 11.488281 15.9375 11.875 C 14.65625 12.257812 13.425781 12.378906 12.25 12.234375 C 11.082031 12.097656 9.992188 11.726562 8.984375 11.125 C 7.972656 10.53125 7.085938 9.75 6.328125 8.78125 C 5.554688 7.789062 4.992188 6.722656 4.640625 5.578125 C 4.285156 4.429688 4.179688 3.269531 4.328125 2.09375 C 4.472656 0.914062 4.882812 -0.242188 5.5625 -1.390625 C 6.25 -2.546875 7.242188 -3.628906 8.546875 -4.640625 Z M 10.28125 -2.421875 C 9.363281 -1.703125 8.617188 -0.929688 8.046875 -0.109375 C 7.484375 0.703125 7.109375 1.523438 6.921875 2.359375 C 6.734375 3.191406 6.738281 4.023438 6.9375 4.859375 C 7.144531 5.703125 7.550781 6.507812 8.15625 7.28125 C 8.757812 8.050781 9.4375 8.628906 10.1875 9.015625 C 10.945312 9.398438 11.753906 9.601562 12.609375 9.625 C 13.460938 9.65625 14.351562 9.492188 15.28125 9.140625 C 16.21875 8.785156 17.144531 8.25 18.0625 7.53125 C 18.96875 6.820312 19.703125 6.0625 20.265625 5.25 C 20.835938 4.4375 21.21875 3.609375 21.40625 2.765625 C 21.601562 1.921875 21.601562 1.082031 21.40625 0.25 C 21.21875 -0.582031 20.820312 -1.382812 20.21875 -2.15625 C 19.613281 -2.925781 18.925781 -3.503906 18.15625 -3.890625 C 17.394531 -4.285156 16.582031 -4.488281 15.71875 -4.5 C 14.863281 -4.519531 13.96875 -4.351562 13.03125 -4 C 12.101562 -3.65625 11.1875 -3.128906 10.28125 -2.421875 Z M 10.28125 -2.421875 "/></g></g></g><g fill="#004aad" fill-opacity="1"><g transform="translate(91.026319, 293.171017)"><g><path d="M 23.953125 -4.828125 L 22.453125 -3.046875 L 17.859375 -6.921875 L 6.984375 5.921875 L 4.9375 4.171875 L 15.8125 -8.671875 L 11.203125 -12.5625 L 12.703125 -14.34375 Z M 23.953125 -4.828125 "/></g></g></g><g fill="#004aad" fill-opacity="1"><g transform="translate(110.815083, 309.002845)"><g><path d="M 6 -7.671875 C 6.78125 -9.109375 7.679688 -10.265625 8.703125 -11.140625 C 9.722656 -12.015625 10.800781 -12.617188 11.9375 -12.953125 C 13.070312 -13.285156 14.226562 -13.367188 15.40625 -13.203125 C 16.59375 -13.046875 17.738281 -12.664062 18.84375 -12.0625 C 19.925781 -11.476562 20.847656 -10.738281 21.609375 -9.84375 C 22.367188 -8.945312 22.914062 -7.929688 23.25 -6.796875 C 23.582031 -5.671875 23.664062 -4.4375 23.5 -3.09375 C 23.332031 -1.757812 22.859375 -0.375 22.078125 1.0625 C 21.285156 2.507812 20.375 3.664062 19.34375 4.53125 C 18.320312 5.394531 17.242188 6 16.109375 6.34375 C 14.984375 6.6875 13.835938 6.78125 12.671875 6.625 C 11.503906 6.476562 10.378906 6.113281 9.296875 5.53125 C 8.191406 4.925781 7.25 4.171875 6.46875 3.265625 C 5.695312 2.359375 5.140625 1.332031 4.796875 0.1875 C 4.460938 -0.945312 4.378906 -2.175781 4.546875 -3.5 C 4.722656 -4.832031 5.207031 -6.222656 6 -7.671875 Z M 8.46875 -6.328125 C 7.90625 -5.296875 7.53125 -4.289062 7.34375 -3.3125 C 7.15625 -2.34375 7.140625 -1.4375 7.296875 -0.59375 C 7.453125 0.238281 7.785156 1 8.296875 1.6875 C 8.816406 2.375 9.507812 2.953125 10.375 3.421875 C 11.226562 3.890625 12.078125 4.144531 12.921875 4.1875 C 13.773438 4.238281 14.601562 4.109375 15.40625 3.796875 C 16.207031 3.484375 16.957031 2.976562 17.65625 2.28125 C 18.363281 1.582031 19 0.71875 19.5625 -0.3125 C 20.113281 -1.320312 20.488281 -2.3125 20.6875 -3.28125 C 20.882812 -4.25 20.898438 -5.160156 20.734375 -6.015625 C 20.566406 -6.867188 20.226562 -7.632812 19.71875 -8.3125 C 19.207031 -8.988281 18.523438 -9.5625 17.671875 -10.03125 C 16.804688 -10.5 15.945312 -10.757812 15.09375 -10.8125 C 14.238281 -10.875 13.414062 -10.738281 12.625 -10.40625 C 11.832031 -10.082031 11.078125 -9.570312 10.359375 -8.875 C 9.648438 -8.1875 9.019531 -7.335938 8.46875 -6.328125 Z M 8.46875 -6.328125 "/></g></g></g><g fill="#004aad" fill-opacity="1"><g transform="translate(138.893766, 322.847472)"><g><path d="M 16.125 -5.15625 L 18.703125 -4.40625 L 16.21875 4.1875 C 15.988281 4.195312 15.660156 4.1875 15.234375 4.15625 C 14.804688 4.132812 14.320312 4.09375 13.78125 4.03125 C 13.238281 3.96875 12.644531 3.878906 12 3.765625 C 11.363281 3.648438 10.722656 3.5 10.078125 3.3125 C 8.796875 2.9375 7.6875 2.382812 6.75 1.65625 C 5.8125 0.925781 5.078125 0.046875 4.546875 -0.984375 C 4.023438 -2.023438 3.722656 -3.195312 3.640625 -4.5 C 3.566406 -5.800781 3.753906 -7.222656 4.203125 -8.765625 C 4.648438 -10.304688 5.273438 -11.609375 6.078125 -12.671875 C 6.890625 -13.742188 7.8125 -14.566406 8.84375 -15.140625 C 9.882812 -15.710938 11 -16.054688 12.1875 -16.171875 C 13.382812 -16.296875 14.59375 -16.179688 15.8125 -15.828125 C 16.644531 -15.597656 17.367188 -15.335938 17.984375 -15.046875 C 18.597656 -14.753906 19.113281 -14.46875 19.53125 -14.1875 C 19.945312 -13.914062 20.28125 -13.664062 20.53125 -13.4375 C 20.78125 -13.207031 20.953125 -13.039062 21.046875 -12.9375 L 19.609375 -11.03125 C 19.191406 -11.53125 18.585938 -12.007812 17.796875 -12.46875 C 17.015625 -12.9375 16.1875 -13.296875 15.3125 -13.546875 C 14.363281 -13.816406 13.453125 -13.894531 12.578125 -13.78125 C 11.710938 -13.664062 10.921875 -13.363281 10.203125 -12.875 C 9.484375 -12.394531 8.835938 -11.742188 8.265625 -10.921875 C 7.703125 -10.097656 7.257812 -9.117188 6.9375 -7.984375 C 6.613281 -6.878906 6.453125 -5.835938 6.453125 -4.859375 C 6.453125 -3.890625 6.617188 -3.003906 6.953125 -2.203125 C 7.285156 -1.410156 7.785156 -0.726562 8.453125 -0.15625 C 9.117188 0.414062 9.976562 0.851562 11.03125 1.15625 C 11.769531 1.375 12.410156 1.515625 12.953125 1.578125 C 13.503906 1.648438 13.90625 1.6875 14.15625 1.6875 Z M 15.8125 -17.484375 C 15.3125 -17.617188 14.867188 -17.832031 14.484375 -18.125 C 14.097656 -18.425781 13.785156 -18.773438 13.546875 -19.171875 C 13.316406 -19.578125 13.175781 -20.035156 13.125 -20.546875 C 13.082031 -21.066406 13.15625 -21.613281 13.34375 -22.1875 L 14.9375 -21.71875 C 14.90625 -21.53125 14.882812 -21.3125 14.875 -21.0625 C 14.875 -20.8125 14.914062 -20.570312 15 -20.34375 C 15.09375 -20.113281 15.242188 -19.898438 15.453125 -19.703125 C 15.671875 -19.515625 15.960938 -19.367188 16.328125 -19.265625 C 16.703125 -19.148438 17.03125 -19.113281 17.3125 -19.15625 C 17.601562 -19.207031 17.84375 -19.3125 18.03125 -19.46875 C 18.226562 -19.625 18.390625 -19.804688 18.515625 -20.015625 C 18.640625 -20.222656 18.738281 -20.421875 18.8125 -20.609375 L 20.40625 -20.140625 C 20.257812 -19.566406 20.03125 -19.070312 19.71875 -18.65625 C 19.414062 -18.25 19.050781 -17.9375 18.625 -17.71875 C 18.207031 -17.507812 17.753906 -17.378906 17.265625 -17.328125 C 16.785156 -17.285156 16.300781 -17.335938 15.8125 -17.484375 Z M 15.8125 -17.484375 "/></g></g></g><g fill="#004aad" fill-opacity="1"><g transform="translate(166.288394, 329.666824)"><g><path d="M 12.359375 -7.046875 C 12.617188 -6.660156 12.945312 -6.148438 13.34375 -5.515625 C 13.75 -4.890625 14.160156 -4.191406 14.578125 -3.421875 C 15.003906 -2.660156 15.421875 -1.863281 15.828125 -1.03125 C 16.234375 -0.207031 16.570312 0.582031 16.84375 1.34375 L 13.90625 1.109375 C 13.59375 0.378906 13.25 -0.351562 12.875 -1.09375 C 12.507812 -1.84375 12.128906 -2.5625 11.734375 -3.25 C 11.347656 -3.945312 10.960938 -4.597656 10.578125 -5.203125 C 10.191406 -5.804688 9.835938 -6.328125 9.515625 -6.765625 C 9.273438 -6.765625 9.03125 -6.773438 8.78125 -6.796875 C 8.53125 -6.816406 8.28125 -6.835938 8.03125 -6.859375 L 5.640625 -7.046875 L 5.046875 0.40625 L 2.375 0.1875 L 3.875 -18.625 C 4.644531 -18.75 5.492188 -18.804688 6.421875 -18.796875 C 7.359375 -18.785156 8.210938 -18.75 8.984375 -18.6875 C 11.671875 -18.46875 13.675781 -17.800781 15 -16.6875 C 16.320312 -15.570312 16.90625 -14.007812 16.75 -12 C 16.644531 -10.738281 16.21875 -9.679688 15.46875 -8.828125 C 14.71875 -7.972656 13.679688 -7.378906 12.359375 -7.046875 Z M 9.015625 -16.34375 C 7.878906 -16.4375 7.003906 -16.476562 6.390625 -16.46875 L 5.8125 -9.265625 L 7.71875 -9.109375 C 8.625 -9.035156 9.453125 -9.015625 10.203125 -9.046875 C 10.953125 -9.085938 11.585938 -9.210938 12.109375 -9.421875 C 12.640625 -9.640625 13.054688 -9.972656 13.359375 -10.421875 C 13.671875 -10.867188 13.859375 -11.476562 13.921875 -12.25 C 13.972656 -12.96875 13.882812 -13.578125 13.65625 -14.078125 C 13.425781 -14.578125 13.085938 -14.984375 12.640625 -15.296875 C 12.191406 -15.617188 11.65625 -15.859375 11.03125 -16.015625 C 10.40625 -16.171875 9.734375 -16.28125 9.015625 -16.34375 Z M 9.015625 -16.34375 "/></g></g></g><g fill="#004aad" fill-opacity="1"><g transform="translate(193.300357, 330.905653)"><g><path d="M 15.0625 -1.8125 C 14.644531 -2.601562 14.253906 -3.378906 13.890625 -4.140625 C 13.523438 -4.898438 13.148438 -5.675781 12.765625 -6.46875 L 4.140625 -5.421875 L 3 -0.359375 L 0.21875 -0.03125 C 0.707031 -2.132812 1.164062 -4.078125 1.59375 -5.859375 C 2.03125 -7.640625 2.460938 -9.335938 2.890625 -10.953125 C 3.328125 -12.566406 3.757812 -14.109375 4.1875 -15.578125 C 4.625 -17.046875 5.085938 -18.507812 5.578125 -19.96875 L 8.015625 -20.265625 C 8.847656 -18.960938 9.648438 -17.648438 10.421875 -16.328125 C 11.203125 -15.003906 11.988281 -13.609375 12.78125 -12.140625 C 13.570312 -10.671875 14.390625 -9.125 15.234375 -7.5 C 16.085938 -5.875 17.003906 -4.097656 17.984375 -2.171875 Z M 11.71875 -8.578125 C 10.945312 -10.097656 10.179688 -11.566406 9.421875 -12.984375 C 8.660156 -14.410156 7.890625 -15.773438 7.109375 -17.078125 C 6.628906 -15.617188 6.191406 -14.109375 5.796875 -12.546875 C 5.398438 -10.992188 5.015625 -9.382812 4.640625 -7.71875 Z M 11.71875 -8.578125 "/></g></g></g><g fill="#004aad" fill-opacity="1"><g transform="translate(220.823711, 326.508953)"><g><path d="M 2.265625 -0.71875 L -3.578125 -18.96875 L 7.4375 -22.5 L 8.140625 -20.3125 L -0.3125 -17.609375 L 1.453125 -12.09375 L 8.953125 -14.484375 L 9.640625 -12.328125 L 2.140625 -9.9375 L 4.828125 -1.546875 Z M 2.265625 -0.71875 "/></g></g></g><g fill="#004aad" fill-opacity="1"><g transform="translate(243.779681, 318.348555)"><g><path d="M 8.171875 -4.0625 C 7.085938 -3.65625 6.019531 -3.453125 4.96875 -3.453125 C 3.914062 -3.460938 2.90625 -3.679688 1.9375 -4.109375 C 0.96875 -4.546875 0.0546875 -5.179688 -0.796875 -6.015625 C -1.660156 -6.859375 -2.441406 -7.921875 -3.140625 -9.203125 C -3.898438 -10.617188 -4.363281 -11.988281 -4.53125 -13.3125 C -4.695312 -14.632812 -4.613281 -15.863281 -4.28125 -17 C -3.945312 -18.144531 -3.398438 -19.175781 -2.640625 -20.09375 C -1.878906 -21.007812 -0.953125 -21.765625 0.140625 -22.359375 C 0.835938 -22.734375 1.492188 -23.019531 2.109375 -23.21875 C 2.722656 -23.425781 3.269531 -23.578125 3.75 -23.671875 C 4.238281 -23.765625 4.644531 -23.816406 4.96875 -23.828125 C 5.300781 -23.835938 5.539062 -23.835938 5.6875 -23.828125 L 6.046875 -21.515625 C 5.847656 -21.523438 5.578125 -21.507812 5.234375 -21.46875 C 4.898438 -21.4375 4.523438 -21.382812 4.109375 -21.3125 C 3.703125 -21.238281 3.273438 -21.128906 2.828125 -20.984375 C 2.378906 -20.835938 1.941406 -20.648438 1.515625 -20.421875 C 0.628906 -19.941406 -0.0859375 -19.351562 -0.640625 -18.65625 C -1.191406 -17.96875 -1.5625 -17.191406 -1.75 -16.328125 C -1.9375 -15.472656 -1.9375 -14.554688 -1.75 -13.578125 C -1.5625 -12.597656 -1.191406 -11.585938 -0.640625 -10.546875 C -0.0859375 -9.546875 0.523438 -8.695312 1.203125 -8 C 1.878906 -7.300781 2.609375 -6.785156 3.390625 -6.453125 C 4.179688 -6.117188 5.019531 -5.976562 5.90625 -6.03125 C 6.789062 -6.082031 7.703125 -6.359375 8.640625 -6.859375 C 9.722656 -7.453125 10.5625 -8.050781 11.15625 -8.65625 C 11.75 -9.257812 12.171875 -9.753906 12.421875 -10.140625 L 14.109375 -8.515625 C 13.972656 -8.210938 13.535156 -7.703125 12.796875 -6.984375 C 12.066406 -6.273438 11.046875 -5.535156 9.734375 -4.765625 C 9.734375 -4.648438 9.738281 -4.535156 9.75 -4.421875 C 9.757812 -4.316406 9.769531 -4.21875 9.78125 -4.125 C 10.375 -4.144531 10.847656 -4.078125 11.203125 -3.921875 C 11.554688 -3.765625 11.867188 -3.429688 12.140625 -2.921875 C 12.242188 -2.734375 12.3125 -2.515625 12.34375 -2.265625 C 12.375 -2.015625 12.335938 -1.742188 12.234375 -1.453125 C 12.140625 -1.171875 11.960938 -0.882812 11.703125 -0.59375 C 11.441406 -0.3125 11.078125 -0.046875 10.609375 0.203125 C 10.191406 0.429688 9.789062 0.609375 9.40625 0.734375 C 9.019531 0.859375 8.695312 0.9375 8.4375 0.96875 L 7.953125 -0.546875 C 8.191406 -0.585938 8.429688 -0.644531 8.671875 -0.71875 C 8.910156 -0.789062 9.164062 -0.898438 9.4375 -1.046875 C 10.03125 -1.359375 10.226562 -1.703125 10.03125 -2.078125 C 9.9375 -2.253906 9.765625 -2.351562 9.515625 -2.375 C 9.265625 -2.40625 8.945312 -2.398438 8.5625 -2.359375 L 8.34375 -2.34375 C 8.300781 -2.5625 8.257812 -2.828125 8.21875 -3.140625 C 8.1875 -3.460938 8.171875 -3.769531 8.171875 -4.0625 Z M 8.171875 -4.0625 "/></g></g></g><g fill="#004aad" fill-opacity="1"><g transform="translate(266.4365, 304.869152)"><g><path d="M -9.71875 -16.671875 L -7.578125 -18.296875 L 4.03125 -3.0625 L 1.890625 -1.4375 Z M -9.71875 -16.671875 "/></g></g></g><g fill="#004aad" fill-opacity="1"><g transform="translate(279.376252, 294.48426)"><g><path d="M 8.046875 -11.5625 L 9.71875 -9.9375 L 1.65625 -1.703125 L -12.046875 -15.09375 L -10.171875 -17.015625 L 1.859375 -5.25 Z M 8.046875 -11.5625 "/></g></g></g><g fill="#004aad" fill-opacity="1"><g transform="translate(295.119586, 277.066191)"><g><path d="M -14.109375 -13.1875 L -12.53125 -15.359375 L 2.96875 -4.09375 L 1.390625 -1.921875 Z M -14.109375 -13.1875 "/></g></g></g><g fill="#004aad" fill-opacity="1"><g transform="translate(304.667179, 263.351614)"><g><path d="M -9.546875 -23.453125 C -9.253906 -22.660156 -8.929688 -21.769531 -8.578125 -20.78125 C -8.222656 -19.789062 -7.863281 -18.765625 -7.5 -17.703125 C -7.144531 -16.640625 -6.796875 -15.585938 -6.453125 -14.546875 C -6.109375 -13.503906 -5.800781 -12.523438 -5.53125 -11.609375 C -4.6875 -12.066406 -3.703125 -12.503906 -2.578125 -12.921875 C -1.453125 -13.347656 -0.285156 -13.726562 0.921875 -14.0625 C 2.128906 -14.40625 3.328125 -14.691406 4.515625 -14.921875 C 5.710938 -15.148438 6.8125 -15.289062 7.8125 -15.34375 L 6.375 -12.53125 C 5.351562 -12.4375 4.289062 -12.265625 3.1875 -12.015625 C 2.082031 -11.773438 0.992188 -11.476562 -0.078125 -11.125 C -1.160156 -10.78125 -2.191406 -10.394531 -3.171875 -9.96875 C -4.148438 -9.550781 -5.03125 -9.109375 -5.8125 -8.640625 L 2.296875 -4.515625 L 1.078125 -2.109375 L -15.984375 -10.796875 L -14.765625 -13.203125 L -7.234375 -9.375 C -7.484375 -10.21875 -7.773438 -11.15625 -8.109375 -12.1875 C -8.441406 -13.226562 -8.78125 -14.257812 -9.125 -15.28125 C -9.46875 -16.300781 -9.800781 -17.269531 -10.125 -18.1875 C -10.457031 -19.113281 -10.753906 -19.90625 -11.015625 -20.5625 Z M -9.546875 -23.453125 "/></g></g></g></svg>